<?xml version="1.0" standalone="no"?>
<!DOCTYPE svg PUBLIC "-//W3C//DTD SVG 1.1//EN" "http://www.w3.org/Graphics/SVG/1.1/DTD/svg11.dtd" >
<svg xmlns="http://www.w3.org/2000/svg">
<metadata>
<json>
<![CDATA[
{
	"fontFamily": "icons-bovada",
	"description": "Font generated by IcoMoon.",
	"majorVersion": 1,
	"minorVersion": 0,
	"version": "Version 1.0",
	"fontId": "icons-bovada",
	"psName": "icons-bovada",
	"subFamily": "Regular",
	"fullName": "icons-bovada"
}
]]>
</json>
</metadata>
<defs>
<font id="icons-bovada" horiz-adv-x="1024">
<font-face units-per-em="1024" ascent="960" descent="-64" />
<missing-glyph horiz-adv-x="1024" />
<glyph unicode="&#x20;" horiz-adv-x="512" d="" />
<glyph unicode="&#x21;" glyph-name="arrow-back" data-tags="arrow-back" d="M234.366 516.908l419.856 416.651c18.172 16.404 42.368 26.441 68.908 26.441s50.736-10.037 68.998-26.522l-0.091 0.081c16.404-18.172 26.441-42.368 26.441-68.908s-10.037-50.735-26.522-68.998l0.080 0.091-349.346-352.551 349.346-342.936c16.404-18.172 26.441-42.368 26.441-68.908s-10.037-50.735-26.522-68.998l0.080 0.091c-18.172-16.404-42.368-26.441-68.908-26.441s-50.736 10.037-68.998 26.522l0.091-0.081-419.856 416.651c-38.46 38.46-38.46 96.151 0 137.816z" />
<glyph unicode="&#x22;" glyph-name="arrow-down" data-tags="arrow-down" d="M443.092 170.366l-416.651 419.856c-16.404 18.172-26.441 42.368-26.441 68.908s10.037 50.736 26.522 68.998l-0.081-0.091c18.172 16.404 42.368 26.441 68.908 26.441s50.735-10.037 68.998-26.522l-0.091 0.080 352.551-349.346 342.936 349.346c18.172 16.404 42.368 26.441 68.908 26.441s50.735-10.037 68.998-26.522l-0.091 0.080c16.404-18.172 26.441-42.368 26.441-68.908s-10.037-50.736-26.522-68.998l0.081 0.091-416.651-419.856c-38.46-38.46-96.151-38.46-137.816 0z" />
<glyph unicode="&#x23;" glyph-name="arrow-next" data-tags="arrow-next" d="M789.634 379.092l-419.856-416.651c-18.172-16.404-42.368-26.441-68.908-26.441s-50.736 10.037-68.998 26.522l0.091-0.081c-16.404 18.172-26.441 42.368-26.441 68.908s10.037 50.735 26.522 68.998l-0.080-0.091 349.346 352.551-349.346 342.936c-16.404 18.172-26.441 42.368-26.441 68.908s10.037 50.735 26.522 68.998l-0.080-0.091c18.172 16.404 42.368 26.441 68.908 26.441s50.736-10.037 68.998-26.522l-0.091 0.081 419.856-416.651c38.46-38.46 38.46-96.15 0-137.815z" />
<glyph unicode="&#x24;" glyph-name="arrow-up" data-tags="arrow-up" d="M580.908 725.634l416.651-419.856c16.404-18.172 26.441-42.368 26.441-68.908s-10.037-50.736-26.522-68.998l0.081 0.091c-18.172-16.404-42.368-26.441-68.908-26.441s-50.735 10.037-68.998 26.522l0.091-0.080-352.551 349.346-342.936-349.346c-18.172-16.404-42.368-26.441-68.908-26.441s-50.735 10.037-68.998 26.522l0.091-0.080c-16.404 18.172-26.441 42.368-26.441 68.908s10.037 50.736 26.522 68.998l-0.081-0.091 416.651 419.856c38.46 38.46 96.15 38.46 137.815 0z" />
<glyph unicode="&#x28;" glyph-name="bonus" data-tags="bonus" d="M963.244 641.489h-146.873c21.072 20.876 34.118 49.821 34.118 81.813 0 63.595-51.554 115.15-115.15 115.15-17.706 0-34.478-3.996-49.464-11.136l0.696 0.299c-20.349-9.507-52.589-40.334-84.676-74.729 14.943 38.675 25.304 72.457 25.304 91.914 0 63.623-51.577 115.2-115.2 115.2s-115.2-51.577-115.2-115.2v0c0-19.497 10.333-53.235 25.253-91.859-32.070 34.373-64.287 65.171-84.625 74.674-14.319 6.874-31.129 10.89-48.877 10.89-63.583 0-115.128-51.545-115.128-115.128 0-32.031 13.081-61.007 34.192-81.877l0.011-0.011h-146.871c0 0-0.001 0-0.002 0-11.439 0-20.711-9.273-20.711-20.711 0 0 0-0.001 0-0.001v0-192.178c0 0 0-0.001 0-0.002 0-11.439 9.273-20.711 20.711-20.711 0.001 0 0.001 0 0.002 0h363.869v-430.459h-282.806v370.391h-41.426v-391.104c0 0 0-0.001 0-0.002 0-11.439 9.273-20.711 20.711-20.711 0.001 0 0.001 0 0.002 0h781.787c0 0 0.001 0 0.002 0 11.439 0 20.711 9.273 20.711 20.711 0 0.001 0 0.001 0 0.002v0 391.104h-41.426v-370.391h-282.806v430.459h363.87c0 0 0.001 0 0.002 0 11.439 0 20.711 9.273 20.711 20.711 0 0.001 0 0.001 0 0.002v0 192.178c0 0 0 0.001 0 0.001 0 11.439-9.273 20.711-20.711 20.711-0.001 0-0.001 0-0.002 0v0zM704.097 790.072c9.148 4.376 19.885 6.932 31.219 6.932 40.739 0 73.764-33.025 73.764-73.764 0-29.405-17.206-54.791-42.099-66.641l-0.446-0.191c-19.891-9.313-83.485-13.488-147.681-14.92h-59.364c50.702 61.031 118.487 136.391 144.607 148.584zM512 918.574c40.726-0.046 73.728-33.048 73.774-73.77v-0.004c0-23.739-28.076-97.594-73.774-194.476-45.706 96.817-73.774 170.64-73.774 194.476 0.046 40.726 33.048 73.728 73.77 73.774h0.004zM257.456 656.409c-25.338 12.042-42.543 37.428-42.543 66.832 0 40.74 33.026 73.766 73.766 73.766 11.335 0 22.074-2.557 31.669-7.125l-0.446 0.191c26.112-12.193 93.904-87.553 144.607-148.584h-61.969c-63.326 1.473-125.446 5.745-145.085 14.92zM81.469 449.311v150.752h317.418c8.786-0.21 17.416-0.364 25.739-0.461v-150.291zM466.051-22.574v622.042c21.385 0.109 37.168 0.457 42.567 0.579l0.097 0.016h6.57l0.097-0.016c5.406-0.121 21.177-0.469 42.567-0.579v-622.042zM942.531 449.311h-343.156v150.291c8.298 0.099 16.902 0.251 25.661 0.461h317.496z" />
<glyph unicode="&#x29;" glyph-name="boxing" data-tags="boxing" d="M1024 487.804l-149.965 167.27c1.972 89.393-48.49 180.502-134.621 242.023-70.347 51.162-153.485 73.545-230.228 60.754-54.133-8.713-100.176-37.982-130.713-79.387l-0.389-0.552c-70.347-102.322-25.581-259.006 102.323-351.736 52.125-38.878 117.493-62.69 188.363-63.948l0.296-0.004h0.881l146.208-163.078zM499.593 566.195v23.934c-0.040 0.696-0.063 1.51-0.063 2.329 0 17.439 10.42 32.444 25.373 39.13l0.272 0.109c5.029 3.026 11.099 4.817 17.587 4.817s12.558-1.79 17.743-4.904l-0.156 0.087 67.15-31.977 19.186 38.371-67.15 31.977c-10.374 4.547-22.465 7.194-35.174 7.194s-24.8-2.646-35.751-7.418l0.578 0.224c-25.974-13.127-44.607-37.524-49.575-66.584l-0.077-0.543c-69.976 76.773-91.221 179.852-43.078 249.391 23.667 32.922 59.936 55.503 101.605 60.681l0.718 0.073c8.819 2.114 18.945 3.326 29.354 3.326 2.047 0 4.083-0.047 6.107-0.14l-0.287 0.010c54.359 0 111.916-22.383 159.88-54.357 73.545-51.162 118.312-131.104 118.312-204.648l-163.078-150.288c-54.359-3.197-111.916 19.186-163.078 54.359-2.173 1.58-4.276 3.219-6.395 4.846zM854.527 612.511l108.718-121.508-143.892-131.102-108.718 121.508zM432.444 484.607c-44.767 76.742-111.916 131.102-185.461 150.287-17.026 5.62-36.623 8.861-56.978 8.861-34.337 0-66.52-9.224-94.205-25.33l0.895 0.481c-105.52-63.951-127.904-223.832-51.162-361.328 52.472-92.598 140.69-152.256 227.28-159.176l146.839-163.781 207.844 188.656-149.142 166.352c0.792 8.429 1.244 18.227 1.244 28.13 0 61.738-17.552 119.377-47.938 168.199l0.784-1.351zM83.905 276.763c-67.15 118.31-51.161 252.611 35.173 303.771 21.003 12.068 46.179 19.187 73.017 19.187 0.185 0 0.371 0 0.556-0.001h-0.029c17.319-0.1 33.79-3.616 48.81-9.906l-0.846 0.314c49.881-13.991 92.015-41.939 123.201-79.334l0.318-0.392c-31.313-0.855-58.279-18.656-72.137-44.529l-0.221-0.452c-7.498-11.756-11.951-26.087-11.951-41.458 0-10.406 2.041-20.336 5.744-29.41l-0.188 0.52 25.581-70.348 38.371 15.988-25.581 70.348c-1.317 4.1-2.076 8.816-2.076 13.71 0 7.847 1.951 15.238 5.395 21.714l-0.121-0.25c7.35 13.735 21.599 22.92 37.993 22.92 2.391 0 4.737-0.195 7.022-0.571l-0.249 0.034 24.668-2.74c1.375-2.279 2.781-4.525 4.11-6.852 28.778-54.359 44.766-115.113 38.371-169.473l-81.557-75.16-82.614-74.988c-73.179 6.836-146.219 60.996-190.763 137.357zM422.851-4.625l-108.719 121.508 143.892 131.102 108.719-121.508z" />
<glyph unicode="&#x2b;" glyph-name="checked" data-tags="checked" d="M364.8 67.2l-364.8 364.8 102.4 105.6 262.4-265.6 556.8 556.8 102.4-102.4-659.2-659.2z" />
<glyph unicode="&#x2c;" glyph-name="close" data-tags="close" d="M0 872.229l87.771 87.771 936.229-936.229-87.771-87.771-936.229 936.229zM0 23.771l936.229 936.229 87.771-87.771-936.229-936.229-87.771 87.771z" />
<glyph unicode="&#x2d;" glyph-name="contact" data-tags="contact" d="M232.106 714.626h559.805c12.253 0 22.186 9.933 22.186 22.186s-9.933 22.186-22.186 22.186h-559.805c-12.253 0-22.186-9.933-22.186-22.186s9.933-22.186 22.186-22.186v0zM232.106 564.309h559.805c12.253 0 22.187 9.933 22.187 22.187s-9.933 22.187-22.187 22.187v0h-559.805c-12.253 0-22.187-9.933-22.187-22.187s9.933-22.187 22.187-22.187v0zM541.354 458.348h-309.248c-0.013 0-0.027 0-0.042 0-12.253 0-22.186-9.933-22.186-22.186s9.933-22.186 22.186-22.186c0.015 0 0.030 0 0.044 0h309.246c0.013 0 0.027 0 0.042 0 12.253 0 22.186 9.933 22.186 22.186s-9.933 22.186-22.186 22.186c-0.015 0-0.030 0-0.044 0h0.002zM898.097 960h-772.194c-61.239-0.071-110.864-49.696-110.935-110.929v-540.295c0.071-61.239 49.696-110.864 110.928-110.935h101.166v-239.654c0-0.002 0-0.005 0-0.008 0-12.25 9.93-22.18 22.18-22.18 6.547 0 12.431 2.837 16.491 7.348l0.018 0.020 235.182 261.841c3.523 3.91 5.678 9.114 5.678 14.82 0 12.249-9.93 22.18-22.18 22.18-6.543 0-12.424-2.833-16.484-7.34l-0.018-0.020-196.494-218.75v203.929c0 0.001 0 0.001 0 0.002 0 12.253-9.933 22.185-22.185 22.185-0.001 0-0.001 0-0.002 0h-123.346c-36.741 0.048-66.513 29.82-66.561 66.556v540.293c0.048 36.741 29.82 66.513 66.556 66.561h772.199c36.741-0.048 66.513-29.82 66.561-66.556v-540.293c-0.048-36.741-29.82-66.513-66.556-66.561h-289.719c-12.254 0-22.187-9.934-22.187-22.187s9.934-22.187 22.187-22.187h289.714c61.239 0.071 110.864 49.696 110.935 110.929v540.295c-0.071 61.239-49.696 110.864-110.929 110.935h-0.007z" />
<glyph unicode="&#x32;" glyph-name="error" data-tags="error" d="M512 960c-282.77 0-512-229.23-512-512s229.23-512 512-512c282.77 0 512 229.23 512 512v0c-0.853 282.426-229.574 511.147-511.918 512h-0.082zM512 38.4c-0.373-0.001-0.814-0.002-1.255-0.002-225.524 0-408.347 182.823-408.347 408.347 0 0.442 0.001 0.883 0.002 1.324v-0.069c-0.001 0.375-0.002 0.818-0.002 1.262 0 94.198 32.554 180.794 87.026 249.149l-0.624-0.81 572.8-572.8c-66.74-53.835-152.584-86.416-246.037-86.416-1.253 0-2.504 0.006-3.754 0.018l0.191-0.001zM835.2 195.2l-576 576c68.789 53.879 156.559 86.401 251.925 86.401 226.7 0 410.476-183.777 410.476-410.476 0-95.366-32.522-183.135-87.079-252.824l0.678 0.899z" />
<glyph unicode="&#x35;" glyph-name="hide-password" data-tags="hide-password" d="M845.265 789.479c-5.057 5.074-12.053 8.214-19.782 8.214-7.695 0-14.663-3.112-19.714-8.146l-0.068-0.068-94.72-94.953c-59.305 21.091-127.71 33.28-198.961 33.28-0.008 0-0.015 0-0.023 0h0.002c-318.138 0-512-241.804-512-279.273 0-25.367 89.6-144.524 246.225-218.764l-83.316-83.782c-5.074-5.057-8.214-12.053-8.214-19.782 0-7.695 3.112-14.663 8.146-19.714l0.068-0.068c5.083-5.019 12.070-8.118 19.782-8.118s14.699 3.1 19.785 8.121l642.324 642.324c5.572 5.122 9.051 12.446 9.051 20.582 0 7.288-2.791 13.923-7.363 18.896l0.018-0.020q-0.6 0.654-1.24 1.269zM325.818 448.534c0 102.825 83.356 186.182 186.182 186.182v0c39.548-0.015 76.14-12.658 105.966-34.115l-0.541 0.37-33.745-33.745c-20.356 12.899-45.083 20.662-71.604 20.945l-0.076 0.001c-77.119 0-139.636-62.517-139.636-139.636v0c0.283-26.597 8.046-51.324 21.28-72.247l-0.335 0.567-33.746-33.745c-21.088 29.286-33.731 65.878-33.745 105.422v0.004zM819.2 646.12l-133.12-133.12c7.696-19.563 12.157-42.219 12.157-65.917 0-102.054-82.731-184.785-184.785-184.785-23.698 0-46.354 4.461-67.174 12.589l1.257-0.432-86.109-86.109c45.152-11.977 97.017-18.929 150.481-19.083h0.094c318.138 0 512 241.804 512 279.273 0 23.273-73.774 123.811-204.8 197.586zM512 308.898c77.119 0 139.636 62.517 139.636 139.636v0c0 0.073 0 0.16 0 0.247 0 9.554-1.017 18.871-2.949 27.848l0.156-0.866-162.909-164.073c7.808-1.712 16.799-2.725 26.015-2.792h0.050z" />
<glyph unicode="&#x37;" glyph-name="help-account-security" data-tags="help-account-security" d="M918.355 353.312v419.68c0 0 0 0.001 0 0.002 0 11.017-8.931 19.948-19.948 19.948-0.001 0-0.001 0-0.002 0v0c-157.489 0-249.271 42.33-298.544 77.833-52.741 38.012-69.245 76.524-69.355 76.789-3.031 7.339-10.123 12.415-18.403 12.437h-0.128c-8.261-0.026-15.342-5.046-18.388-12.197l-0.050-0.131c-0.156-0.374-16.661-38.885-69.401-76.898-49.273-35.503-141.055-77.833-298.544-77.833 0 0-0.001 0-0.001 0-11.017 0-19.948-8.931-19.948-19.948 0-0.001 0-0.001 0-0.002v0-419.68c-1.917-21.087-8.93-223.82 397.853-415.41 2.49-1.2 5.414-1.901 8.502-1.901s6.012 0.701 8.622 1.953l-0.12-0.052c406.784 191.59 399.77 394.323 397.853 415.41zM512-21.966c-382.354 182.924-366.8 370.026-366.62 371.725 0.104 0.756 0.164 1.63 0.164 2.517 0 0.003 0 0.005 0 0.008v0 400.978c231.753 5.050 330.065 97.689 366.457 147.904 36.392-50.216 134.704-142.855 366.457-147.904v-400.979c0-0.002 0-0.005 0-0.008 0-0.888 0.059-1.761 0.175-2.617l-0.011 0.1c0.234-1.87 19.154-187.21-366.62-371.725zM421.527 529.394c-3.668 5.031-9.541 8.263-16.17 8.263-11.019 0-19.952-8.933-19.952-19.952 0-4.391 1.418-8.451 3.822-11.746l-0.039 0.057 108.746-150.538c3.67-5.028 9.542-8.259 16.17-8.26h0.312c6.727 0.117 12.631 3.538 16.172 8.706l0.044 0.068 193.382 285.959c2.144 3.133 3.423 7.004 3.423 11.175 0 11.019-8.932 19.951-19.951 19.951-6.848 0-12.891-3.451-16.484-8.708l-0.044-0.069-177.392-262.316zM703.418 537.997c12.694-26.364 20.112-57.324 20.112-90.016 0-116.81-94.693-211.503-211.503-211.503s-211.503 94.693-211.503 211.503c0 116.795 94.669 211.479 211.459 211.503h0.002c36.82-0.012 71.443-9.403 101.616-25.912l-1.106 0.554 18.967 35.098c-34.548 19.028-75.721 30.224-119.51 30.224-138.84 0-251.393-112.552-251.393-251.393s112.552-251.393 251.393-251.393c138.829 0 251.374 112.534 251.393 251.358v0.002c0.001 0.191 0.001 0.417 0.001 0.644 0 38.621-8.79 75.188-24.478 107.812l0.647-1.493z" />
<glyph unicode="&#x3b;" glyph-name="no-results" data-tags="no-results" d="M510.4 960c-0.055 0-0.121 0-0.186 0-192.976 0-349.413-156.438-349.413-349.413 0-170.126 121.585-311.855 282.601-343.032l2.199-0.354v-315.2c0.027-8.826 7.174-15.973 15.997-16h100.803c8.826 0.027 15.973 7.174 16 15.997v313.603c162.932 31.913 284.263 173.309 284.8 343.142v0.058c-3.2 194.4-160 351.2-352.8 351.2zM544.8-33.6h-68.8v296c11.2-0.8 23.2-1.6 34.4-1.6 1.703-0.042 3.71-0.066 5.722-0.066 10.106 0 20.070 0.605 29.859 1.782l-1.181-0.116zM510.4 292c-175.406 0-317.6 142.194-317.6 317.6s142.194 317.6 317.6 317.6c175.406 0 317.6-142.194 317.6-317.6v0c0-0.074 0-0.161 0-0.249 0-175.268-142.083-317.351-317.351-317.351-0.087 0-0.175 0-0.262 0h0.013zM726.4 701.6h-430.4c-8.826-0.027-15.973-7.174-16-15.997v-151.203c0.027-8.826 7.174-15.973 15.997-16h430.403c8.826 0.027 15.973 7.174 16 15.997v151.203c-0.601 8.584-7.416 15.399-15.946 15.997l-0.054 0.003zM312 550.4v119.2h398.4v-119.2z" />
<glyph unicode="&#x3c;" glyph-name="play" data-tags="play" d="M511.882 959.874c-282.595-0.139-511.63-229.26-511.63-511.874 0-282.7 229.174-511.874 511.874-511.874 282.697 0 511.87 229.169 511.874 511.866v0.001c-0.33 282.655-229.446 511.686-512.1 511.882h-0.018zM511.882-25.948c-261.649 0.139-473.704 212.28-473.704 473.948 0 261.754 212.194 473.948 473.948 473.948s473.948-212.194 473.948-473.948c0-0.003 0-0.005 0-0.008v0c-0.312-261.714-212.46-473.773-474.177-473.941h-0.016zM361.84 217.352l411.256 230.568-411.256 230.84v-461.408z" />
<glyph unicode="&#x3d;" glyph-name="menu" data-tags="menu" d="M0 704h1024v-96h-1024v96zM0 288h1024v-96h-1024v96z" />
<glyph unicode="&#x3e;" glyph-name="info" data-tags="info" d="M512 960c-282.77 0-512-229.23-512-512s229.23-512 512-512c282.77 0 512 229.23 512 512v0c-0.853 282.426-229.574 511.147-511.918 512h-0.082zM512 0c-247.424 0-448 200.576-448 448s200.576 448 448 448c247.424 0 448-200.576 448-448v0c-0.747-247.123-200.877-447.253-447.928-448h-0.072zM470.4 502.4h89.6v-310.4h-89.6v310.4zM512 720c-35.346 0-64-28.654-64-64s28.654-64 64-64c35.346 0 64 28.654 64 64v0c-0.107 35.303-28.697 63.893-63.99 64h-0.010z" />
<glyph unicode="&#x3f;" glyph-name="search-play" data-tags="search-play" d="M512 960c-282.77 0-512-229.23-512-512s229.23-512 512-512c282.77 0 512 229.23 512 512v0c0 0.012 0 0.025 0 0.039 0 282.748-229.213 511.961-511.961 511.961-0.014 0-0.027 0-0.041 0h0.002zM415.6 191.2v513.6l256.8-256.8z" />
<glyph unicode="&#x40;" glyph-name="search" data-tags="search" d="M1007.148 27.343l-247.155 246.785c55.594 71.142 89.144 161.859 89.144 260.411 0 117.338-47.559 223.568-124.451 300.465v0c-166.91 166.661-436.534 166.661-600.234 0-76.719-77.006-124.151-183.235-124.151-300.543 0-235.191 190.66-425.851 425.851-425.851 98.34 0 188.894 33.333 260.981 89.317l-0.965-0.721 247.155-246.786c9.671-8.94 22.651-14.423 36.913-14.423s27.242 5.483 36.949 14.456l-0.036-0.033c10.384 9.585 16.865 23.266 16.865 38.46s-6.481 28.875-16.83 38.428l-0.036 0.032zM195.068 309.383c-57.496 57.091-93.085 136.178-93.085 223.578 0 0.272 0 0.544 0.001 0.815v-0.043c0 0.086 0 0.188 0 0.29 0 175.407 142.196 317.603 317.603 317.603s317.603-142.196 317.603-317.603c0-175.407-142.196-317.603-317.603-317.603-87.674 0-167.050 35.525-224.52 92.965l0.002-0.002z" />
<glyph unicode="&#x41;" glyph-name="security" data-tags="security" d="M266.906 691.695c0 0.154-0.001 0.337-0.001 0.52 0 124.445 100.254 225.473 224.403 226.726l0.119 0.001h39.31c124.197-0.149 224.926-100.413 225.827-224.419v-106.516h41.058v106.543c-0.989 146.67-119.998 265.215-266.751 265.451h-39.548c-146.899-1.318-265.475-120.708-265.475-267.794 0-0.219 0-0.439 0.001-0.658v0.034l-0.016-103.592h41.058zM687.8 587.991v91.274c-0.106 92.928-75.41 168.233-168.328 168.338h-14.95c-92.928-0.106-168.232-75.41-168.338-168.328v-91.284h41.058v91.274c0.081 70.262 57.018 127.199 127.272 127.28h14.947c70.262-0.081 127.199-57.018 127.28-127.272v-91.282zM848.504 537.181h-673.009c-29.464-0.035-53.34-23.911-53.376-53.372v-340.112c0-114.53 97.617-207.697 217.608-207.697h344.544c119.991 0 217.608 93.167 217.608 207.68v340.125c-0.035 29.464-23.911 53.34-53.372 53.376h-0.003zM860.822 143.68c0-91.884-79.197-166.622-176.55-166.622h-344.544c-97.353 0-176.55 74.755-176.55 166.638v340.109c0.011 6.798 5.519 12.307 12.316 12.317h673.010c6.765-0.092 12.225-5.552 12.317-12.309v-0.009zM511.892 350.431c-0.031 0-0.067 0-0.104 0-26.144 0-47.338-21.194-47.338-47.338 0-18.759 10.912-34.97 26.734-42.631l0.282-0.123v-106.955c0.023-11.32 9.205-20.489 20.529-20.489s20.506 9.168 20.529 20.486v107.074c15.986 7.824 26.8 23.972 26.8 42.645 0 26.139-21.19 47.33-47.33 47.33-0.036 0-0.073 0-0.109 0h0.006z" />
<glyph unicode="&#x42;" glyph-name="show-password" data-tags="show-password" d="M651.636 448c0-77.119-62.517-139.636-139.636-139.636s-139.636 62.517-139.636 139.636c0 77.119 62.517 139.636 139.636 139.636s139.636-62.517 139.636-139.636zM512 727.273c-318.138 0-512-241.804-512-279.273s193.862-279.273 512-279.273 512 241.804 512 279.273-193.862 279.273-512 279.273zM512 261.818c-102.825 0-186.182 83.356-186.182 186.182s83.356 186.182 186.182 186.182c102.825 0 186.182-83.356 186.182-186.182v0c0-102.825-83.356-186.182-186.182-186.182v0z" />
<glyph unicode="&#x43;" glyph-name="slots" data-tags="slots" d="M601.6 577.2c-4.061 6.294-11.038 10.401-18.974 10.401-0.080 0-0.159 0-0.238-0.001h-139.988c-12.813 0-23.2-10.387-23.2-23.2s10.387-23.2 23.2-23.2h104.8l-80-200.8c-1.101-2.611-1.74-5.646-1.74-8.83 0-9.705 5.942-18.023 14.386-21.513l0.155-0.057c2.599-0.869 5.605-1.442 8.72-1.597l0.080-0.003c9.809 0.27 18.115 6.419 21.543 15.039l0.057 0.161 93.6 232c0.862 2.457 1.36 5.289 1.36 8.238 0 4.942-1.399 9.558-3.824 13.472l0.063-0.11zM927.2 577.2c-4.061 6.294-11.038 10.401-18.974 10.401-0.080 0-0.159 0-0.238-0.001h-139.988c-12.813 0-23.2-10.387-23.2-23.2s10.387-23.2 23.2-23.2h104.8l-80-200.8c-1.101-2.611-1.74-5.646-1.74-8.83 0-9.705 5.942-18.023 14.386-21.513l0.155-0.057c2.599-0.869 5.605-1.442 8.72-1.597l0.080-0.003c0.001 0 0.002 0 0.003 0 9.891 0 18.42 5.834 22.334 14.248l0.063 0.152 92.8 232.801c0.862 2.456 1.36 5.289 1.36 8.237 0 4.942-1.399 9.558-3.823 13.472l0.063-0.11zM275.2 577.2c-4.061 6.294-11.038 10.401-18.974 10.401-0.080 0-0.159 0-0.238-0.001h-139.988c-12.813 0-23.2-10.387-23.2-23.2s10.387-23.2 23.2-23.2h105.6l-80-200.8c-1.101-2.611-1.74-5.646-1.74-8.83 0-9.705 5.942-18.023 14.386-21.513l0.155-0.057c2.599-0.869 5.605-1.442 8.72-1.597l0.080-0.003c9.809 0.27 18.115 6.419 21.543 15.039l0.057 0.161 92.8 232c1.038 2.532 1.641 5.471 1.641 8.55 0 4.876-1.511 9.399-4.091 13.127l0.050-0.077zM1023.2 198.128v500.545c0.508 1.716 0.8 3.688 0.8 5.728s-0.292 4.011-0.837 5.875l0.037-0.148v87.072c-0.028 38.428-31.172 69.572-69.597 69.6h-884.003c-38.428-0.028-69.572-31.172-69.6-69.597v-698.403c0.029-38.428 31.172-69.571 69.597-69.6h884.803c38.018 0.092 68.803 30.933 68.803 68.964 0 0.224-0.001 0.447-0.003 0.67v-0.034 87.873c0.508 1.716 0.8 3.688 0.8 5.728s-0.292 4.011-0.837 5.875l0.037-0.148zM372 215.601v465.599h280v-465.6zM46.4 215.601v465.599h279.2v-465.6zM698.4 681.2h278.4v-465.6h-278.4zM69.6 820.4h884c12.809-0.010 23.19-10.391 23.2-23.199v-69.601h-930.4v69.6c0.010 12.809 10.391 23.19 23.199 23.2h0.001zM953.6 75.6h-884c-12.809 0.009-23.191 10.391-23.2 23.199v70.401h930.4v-70.4c-0.009-12.809-10.391-23.19-23.199-23.199h-0.001z" />
<glyph unicode="&#x44;" glyph-name="ticket" data-tags="ticket" d="M1016.766 588.799l-93.237 96.001c-6.492 7.1-15.477 11.827-25.561 12.787l-0.16 0.012c-0.552 0.031-1.197 0.049-1.846 0.049-10.894 0-20.625-4.98-27.041-12.787l-0.048-0.061c-15.686-15.598-37.224-25.324-61.034-25.6h-0.053c-1.203-0.068-2.61-0.106-4.026-0.106-22.675 0-43.037 9.907-56.992 25.628l-0.068 0.078c-14.912 15.258-24.113 36.155-24.113 59.2s9.2 43.941 24.129 59.216l-0.016-0.016 3.215 3.2c4.532 6.75 7.234 15.060 7.234 24s-2.701 17.25-7.333 24.157l0.099-0.157-96.452 95.999c-5.959 5.476-13.77 9.020-22.394 9.595l-0.112 0.006c-0.905 0.074-1.958 0.116-3.022 0.116-9.943 0-19.025-3.682-25.959-9.756l0.045 0.039-594.788-595.199c-4.532-6.75-7.234-15.060-7.234-24s2.701-17.25 7.333-24.157l-0.099 0.157 93.237-92.8c7.292-7.714 17.524-12.581 28.896-12.799l0.040-0.001c0.445-0.024 0.966-0.038 1.489-0.038 10.034 0 18.889 5.046 24.167 12.738l0.065 0.1c14.86 15.005 35.156 24.603 57.688 25.594l0.183 0.006c0.645 0.019 1.405 0.029 2.167 0.029 23.237 0 44.176-9.841 58.876-25.582l0.043-0.047c14.912-15.259 24.113-36.155 24.113-59.2s-9.2-43.941-24.128-59.216l0.016 0.016-3.215-3.2c-4.532-6.75-7.234-15.059-7.234-24s2.701-17.25 7.333-24.156l-0.099 0.157 96.452-96c7.292-7.713 17.524-12.58 28.895-12.799l0.040-0.001c0.445-0.024 0.966-0.038 1.49-0.038 10.034 0 18.889 5.046 24.166 12.738l0.065 0.1 594.788 592c4.543 6.747 7.251 15.057 7.251 24s-2.708 17.253-7.349 24.155l0.098-0.155zM984.616 559.999l-281.319-279.999-53.049 52.8c-2.842 2.96-6.833 4.8-11.253 4.8s-8.41-1.839-11.248-4.794l-0.005-0.005-3.215-3.2c-2.973-2.816-4.822-6.792-4.822-11.2s1.85-8.384 4.815-11.193l0.007-0.007 53.049-52.8-281.319-280-93.237 92.799v3.2c20.924 22.636 33.758 53.020 33.758 86.401s-12.834 63.765-33.836 86.486l0.078-0.085c-22.415 21.774-53.043 35.199-86.807 35.199s-64.392-13.425-86.837-35.229l0.030 0.029-90.022 89.599v3.2l279.711 278.4 51.441-51.2c2.842-2.96 6.833-4.8 11.253-4.8s8.41 1.839 11.248 4.794l0.005 0.005 3.215 3.2c2.973 2.816 4.823 6.792 4.823 11.2s-1.85 8.383-4.816 11.193l-0.007 0.007-51.441 51.2 282.926 281.6c0.021 0.001 0.046 0.001 0.071 0.001 1.736 0 3.144-1.408 3.144-3.144 0-0.020 0-0.040-0.001-0.060v0.003l90.022-86.4v-3.2c-20.924-22.636-33.758-53.019-33.758-86.4s12.834-63.764 33.836-86.485l-0.078 0.085c22.415-21.775 53.043-35.2 86.807-35.2s64.392 13.426 86.837 35.229l-0.030-0.029 90.022-92.8zM547.366 435.199c-2.842 2.961-6.833 4.8-11.253 4.8s-8.411-1.84-11.248-4.795l-0.005-0.005-3.215-3.2c-2.973-2.816-4.823-6.792-4.823-11.2s1.85-8.383 4.816-11.193l0.007-0.007 54.656-54.4c2.842-2.961 6.833-4.8 11.253-4.8s8.411 1.84 11.248 4.795l0.005 0.005 3.215 3.2c2.973 2.816 4.823 6.792 4.823 11.2s-1.85 8.383-4.816 11.193l-0.007 0.007zM444.483 540.8c-2.842 2.961-6.833 4.8-11.253 4.8s-8.411-1.84-11.248-4.795l-0.005-0.005-3.215-3.201c-2.973-2.816-4.823-6.792-4.823-11.2s1.85-8.383 4.816-11.193l0.007-0.007 54.656-54.4c2.842-2.961 6.833-4.8 11.253-4.8s8.411 1.84 11.248 4.795l0.005 0.005 3.215 3.2c2.973 2.816 4.823 6.792 4.823 11.2s-1.85 8.383-4.816 11.193l-0.007 0.007z" />
<glyph unicode="&#x45;" glyph-name="table-games" data-tags="table-games" d="M955.405 192.431c43.123 73.301 68.595 161.471 68.595 255.589 0 92.117-24.4 178.536-67.089 253.145l1.317-2.499c-0.534 2.024-1.297 3.799-2.279 5.426l0.051-0.092c-0.941 1.49-1.969 2.784-3.121 3.957l0.004-0.004c-44.922 74.989-105.941 136.008-178.596 179.63l-2.334 1.299c-1.169 1.148-2.463 2.176-3.857 3.061l-0.095 0.056c-1.535 0.932-3.31 1.695-5.192 2.196l-0.143 0.032c-72.117 41.372-158.541 65.772-250.665 65.772s-178.549-24.4-253.165-67.089l2.5 1.317c-2.025-0.534-3.8-1.296-5.426-2.28l0.091 0.051c-1.489-0.941-2.783-1.969-3.956-3.121l0.004 0.003c-74.989-44.922-136.008-105.941-179.631-178.595l-1.3-2.334c-1.148-1.169-2.176-2.464-3.061-3.858l-0.056-0.095c-0.931-1.535-1.694-3.31-2.196-5.191l-0.032-0.143c-41.372-72.11-65.772-158.528-65.772-250.646 0-94.119 25.472-182.288 69.898-257.991l-1.303 2.402c0.082-0.14 0.12-0.292 0.205-0.431 0.053-0.094 0.134-0.158 0.188-0.252 45.779-77.86 108.915-140.993 184.368-185.457l2.409-1.313c0.084-0.053 0.15-0.126 0.235-0.178 0.858-0.634 1.836-1.194 2.877-1.633l0.094-0.035c72.685-42.216 159.948-67.133 253.030-67.133s180.344 24.916 255.481 68.443l-2.451-1.31c1.134 0.474 2.112 1.034 3.009 1.696l-0.039-0.028c0.085 0.052 0.151 0.125 0.235 0.178 77.862 45.776 140.998 108.91 185.464 184.361l1.313 2.408c0.054 0.094 0.135 0.158 0.188 0.252 0.086 0.139 0.124 0.291 0.205 0.431zM489.6 70.317v-88.948c-70.562 3.427-136.037 22.11-194.197 52.795l2.529-1.216 44.113 77.065c42.913-22.144 93.217-36.45 146.515-39.646l1.039-0.050zM534.4 70.317c54.338 3.246 104.642 17.551 149.668 40.682l-2.113-0.986 44.113-77.065c-55.631-29.468-121.105-48.151-190.596-51.537l-1.072-0.042zM512 114.4c-184.242 0-333.6 149.358-333.6 333.6s149.358 333.6 333.6 333.6c184.242 0 333.6-149.358 333.6-333.6v0c-0.177-184.171-149.429-333.423-333.583-333.6h-0.017zM45.369 425.6h88.948c3.245-54.338 17.551-104.641 40.681-149.666l-0.986 2.113-77.065-44.114c-29.469 55.631-48.152 121.106-51.537 190.598l-0.042 1.070zM96.765 661.714l77.066-44.113c-22.038-42.818-36.277-93-39.464-146.161l-0.050-1.040h-88.948c3.42 70.425 22.036 135.776 52.613 193.85l-1.217-2.535zM534.4 825.684v88.948c70.424-3.42 135.776-22.036 193.85-52.613l-2.536 1.217-44.113-77.065c-42.818 22.038-93 36.277-146.161 39.464l-1.040 0.050zM489.6 825.684c-54.201-3.237-104.383-17.476-149.319-40.5l2.119 0.986-44.113 77.065c55.538 29.361 120.89 47.977 190.243 51.355l1.070 0.042zM978.631 470.4h-88.948c-3.237 54.2-17.476 104.383-40.5 149.32l0.986-2.118 77.066 44.113c29.36-55.538 47.976-120.89 51.355-190.243l0.042-1.071zM889.683 425.6h88.948c-3.427-70.562-22.11-136.037-52.795-194.197l1.216 2.529-77.065 44.114c22.145 42.912 36.45 93.216 39.646 146.515l0.050 1.040zM904.968 700.19l-77.058-44.108c-28.768 43.134-64.696 79.061-106.445 106.958l-1.385 0.871 44.109 77.058c56.794-36.957 103.822-83.985 139.671-138.967l1.108-1.811zM259.81 840.969l44.109-77.058c-43.134-28.768-79.061-64.695-106.959-106.444l-0.871-1.385-77.057 44.108c36.957 56.794 83.985 103.821 138.966 139.67l1.812 1.108zM119.247 195.475l77.058 44.109c28.664-42.88 64.399-78.616 105.902-106.411l1.377-0.868-44.109-77.058c-56.537 36.856-103.371 83.691-139.122 138.423l-1.106 1.804zM764.525 55.247l-44.109 77.058c42.88 28.664 78.616 64.399 106.411 105.902l0.868 1.377 77.058-44.109c-36.857-56.537-83.691-103.371-138.424-139.122l-1.804-1.106zM690.4 514.4c-0.038 0-0.083 0-0.128 0-28.597 0-52.956-18.14-62.201-43.54l-0.146-0.46h-93.524v92.725c25.87 9.465 44 33.869 44 62.508 0 36.672-29.728 66.4-66.4 66.4s-66.4-29.728-66.4-66.4c0-28.638 18.13-53.042 43.539-62.36l0.461-0.148v-92.725h-93.524c-9.465 25.87-33.869 44-62.508 44-36.672 0-66.4-29.728-66.4-66.4s29.728-66.4 66.4-66.4c28.638 0 53.042 18.13 62.36 43.539l0.148 0.461h93.524v-93.524c-25.87-9.465-44-33.869-44-62.508 0-36.672 29.728-66.4 66.4-66.4s66.4 29.728 66.4 66.4c0 28.638-18.13 53.042-43.539 62.36l-0.461 0.148v93.524h93.524c9.468-25.856 33.863-43.974 62.489-43.974 36.665 0 66.387 29.722 66.387 66.387s-29.722 66.387-66.387 66.387c-0.005 0-0.010 0-0.014 0h0.001zM512 648c0.006 0 0.012 0 0.019 0 12.361 0 22.381-10.020 22.381-22.381 0-10.943-7.854-20.052-18.232-21.997l-0.139-0.022c-1.206 0.243-2.597 0.388-4.019 0.399h-0.010c-1.407-0.019-2.768-0.164-4.087-0.423l0.143 0.023c-10.558 1.928-18.456 11.055-18.456 22.027 0 12.356 10.017 22.372 22.372 22.372 0.010 0 0.019 0 0.029 0h-0.002zM333.6 425.601c-0.159-0.004-0.346-0.007-0.533-0.007-12.080 0-21.873 9.793-21.873 21.873 0 0.187 0.002 0.374 0.007 0.56l-0.001-0.028c0 0.012 0 0.026 0 0.039 0 12.349 10.011 22.361 22.361 22.361 0.014 0 0.028 0 0.042 0h-0.002c0.159 0.004 0.346 0.007 0.533 0.007 12.080 0 21.873-9.793 21.873-21.873 0-0.188-0.002-0.375-0.007-0.561l0.001 0.028c0-0.011 0-0.025 0-0.038 0-12.35-10.011-22.361-22.361-22.361-0.014 0-0.027 0-0.041 0h0.002zM512 248c-0.212-0.007-0.462-0.012-0.712-0.012-11.951 0-21.645 9.667-21.688 21.608v0.004c0 0.012 0 0.026 0 0.039 0 12.349 10.011 22.36 22.36 22.36 0.014 0 0.028 0 0.042 0h-0.002c0.213 0.007 0.463 0.012 0.714 0.012 11.951 0 21.644-9.667 21.686-21.608v-0.004c0-0.012 0-0.025 0-0.039 0-12.35-10.011-22.361-22.361-22.361-0.014 0-0.027 0-0.041 0h0.002zM690.4 425.601c-0.159-0.004-0.346-0.006-0.533-0.006-12.080 0-21.873 9.793-21.873 21.873 0 0.187 0.002 0.374 0.007 0.56l-0.001-0.028c0 0 0 0 0 0.001 0 12.371 10.029 22.4 22.4 22.4s22.4-10.029 22.4-22.4c0-12.371-10.029-22.4-22.4-22.4v0z" />
<glyph unicode="&#x46;" glyph-name="transactions" data-tags="transactions" d="M0 128.268h921.934v539.819h-921.934zM38.715 629.372h844.504v-462.389h-844.504zM112.912 767.736v-38.72h872.376v-498.712h38.712v537.432h-911.088zM765.909 555.54v19.358h-609.914v-19.358c-0.030-24.226-19.661-43.857-43.884-43.887h-19.36v-226.967h19.358c24.226-0.030 43.857-19.661 43.887-43.884v-19.361h609.914v19.358c0.030 24.226 19.661 43.857 43.884 43.887h19.36v226.967h-19.358c-24.226 0.030-43.857 19.661-43.887 43.884v0.003zM790.439 321.117c-30.156-7.516-53.445-30.805-60.84-60.39l-0.121-0.571h-537.051c-7.516 30.156-30.805 53.445-60.39 60.84l-0.571 0.121v154.104c30.156 7.516 53.445 30.805 60.84 60.39l0.121 0.571h537.051c7.516-30.156 30.805-53.445 60.39-60.84l0.571-0.121zM460.967 501.052c-53.475 0-96.969-46.141-96.969-102.867s43.494-102.867 96.969-102.867c53.46 0 96.954 46.141 96.954 102.867s-43.494 102.867-96.954 102.867zM460.967 334.032c-32.121 0-58.254 28.779-58.254 64.152s26.133 64.152 58.254 64.152c32.106 0 58.239-28.779 58.239-64.152s-26.133-64.152-58.239-64.152zM240.185 429.716c-0.005 0-0.010 0-0.015 0-17.356 0-31.426-14.070-31.426-31.426s14.070-31.426 31.426-31.426c17.356 0 31.426 14.070 31.426 31.426 0 0 0 0 0 0v0c-0.018 17.343-14.068 31.399-31.408 31.426h-0.003zM681.432 429.701c-17.34-0.004-31.396-14.062-31.396-31.403 0-17.343 14.060-31.403 31.403-31.403 17.341 0 31.399 14.055 31.403 31.395v0c-0.016 17.341-14.069 31.395-31.409 31.411h-0.001z" />
<glyph unicode="&#x47;" glyph-name="trash" data-tags="trash" d="M654.6 846.4v113.6h-284.8v-113.6h-284.4v-227.6h56.8v-682.8h739.6v682.8h56.8v227.6zM427 903.2h170.8v-56.8h-170.8zM825-7.2h-625.6v626h625.6zM881.8 675.6h-739.2v113.6h739.6v-113.6zM369.8 533.2h56.8v-455.2h-56.8v455.2zM597.4 533.2h56.8v-455.2h-56.8v455.2z" />
<glyph unicode="&#x48;" glyph-name="user" data-tags="user" d="M512 80c-0.268-0.001-0.585-0.001-0.902-0.001-127.040 0-239.086 64.194-305.472 161.913l-0.826 1.288c3.2 102.4 204.8 156.8 307.2 156.8s304-57.6 307.2-160c-68.54-97.25-180.377-160-306.87-160-0.116 0-0.232 0-0.348 0h0.018zM512 806.4c84.349-1.187 152.413-69.251 153.599-153.487l0.001-0.113c-0.019-84.823-68.777-153.581-153.598-153.6h-0.002c-0.588-0.008-1.282-0.013-1.978-0.013-83.746 0-151.635 67.889-151.635 151.635 0 0.695 0.005 1.39 0.014 2.083l-0.001-0.105c0.019 84.823 68.777 153.581 153.598 153.6h0.002zM512 960c-282.77 0-512-229.23-512-512s229.23-512 512-512c282.77 0 512 229.23 512 512v0c-0.853 282.426-229.574 511.147-511.918 512h-0.082z" />
<glyph unicode="&#x49;" glyph-name="warning" data-tags="warning" d="M140.8 86.4h742.4l-374.4 643.2zM1024 6.4h-1024l508.8 883.2zM470.4 246.4h80v-80h-80v80zM470.4 489.6h80v-160h-80v160z" />
<glyph unicode="&#x4b;" glyph-name="help-financial" data-tags="help-financial" d="M492.106 433.72v-112.935c-61.079 4.27-105.229 27.559-112.694 49.362-3.1 8.682-11.251 14.783-20.828 14.783-12.186 0-22.064-9.878-22.064-22.064 0-2.514 0.42-4.929 1.195-7.18l-0.046 0.155c14.876-43.403 77.027-74.664 154.438-79.283v-60.841c0-12.184 9.877-22.061 22.061-22.061s22.061 9.877 22.061 22.061v0 61.138c89.034 6.308 153.568 46.975 153.568 99.634s-64.534 93.326-153.568 99.634v113.026c57.231-4.8 97.125-26.017 107.101-46.148 3.685-7.342 11.154-12.293 19.78-12.293 12.184 0 22.060 9.877 22.060 22.060 0 3.575-0.85 6.952-2.36 9.938l0.058-0.126c-19.098 38.551-76.491 65.65-146.639 70.782v60.156c0 12.184-9.877 22.061-22.061 22.061s-22.061-9.877-22.061-22.061v-59.799c-91.292-5.257-157.902-46.484-157.902-100.026 0-53.507 66.61-94.717 157.902-99.974zM645.674 376.49c0-21.174-41.104-49.772-109.445-55.403v110.807c68.34-5.632 109.445-34.23 109.445-55.403zM492.106 589.46v-111.479c-70.939 4.74-113.78 34.096-113.78 55.714 0 21.635 42.841 51.017 113.78 55.765zM511.892 959.858c-282.584-0.143-511.608-229.254-511.608-511.858 0-282.691 229.167-511.858 511.858-511.858 282.685 0 511.848 229.157 511.858 511.84v0.001c-0.336 282.647-229.442 511.671-512.088 511.875h-0.020zM511.892-19.735c-258.216 0.142-467.485 209.5-467.485 467.735 0 258.323 209.412 467.735 467.735 467.735s467.735-209.412 467.735-467.735c0-0.006 0-0.012 0-0.018v0.001c-0.319-258.279-209.685-467.551-467.969-467.718h-0.016zM511.927 837.4c-12.184 0-22.061-9.877-22.061-22.061s9.877-22.061 22.061-22.061v0c190.634-0.047 345.155-154.597 345.155-345.238 0-190.669-154.568-345.238-345.238-345.238s-345.238 154.568-345.238 345.238c0 110.187 51.62 208.318 131.997 271.528l0.742 0.562c5.183 4.074 8.481 10.344 8.481 17.384 0 12.182-9.875 22.057-22.057 22.057-5.154 0-9.895-1.768-13.65-4.73l0.047 0.036c-91.553-71.964-149.814-182.708-149.814-307.059 0-215.161 174.422-389.583 389.583-389.583s389.583 174.422 389.583 389.583c0 215.161-174.422 389.583-389.583 389.583-0.002 0-0.005 0-0.007 0v0z" />
<glyph unicode="&#x4c;" glyph-name="help-technical" data-tags="help-technical" d="M235.985 414.968c2.099 0.029 4.724 0.173 7.819 0.346 20.585 1.068 63.385 3.491 98.388-29.745l25.432 26.774c-46.551 44.214-102.117 41.098-125.861 39.843-2.481-0.144-4.594-0.274-6.030-0.288l-2.265-0.014c-2.015-0.077-4.382-0.12-6.759-0.12-104.778 0-189.718 84.94-189.718 189.718 0 15.506 1.86 30.577 5.369 45.002l-0.267-1.298 87.995-87.995c17.997-17.866 42.79-28.907 70.161-28.907 55.007 0 99.599 44.592 99.599 99.599 0 27.37-11.040 52.161-28.909 70.163l-87.982 87.989c13.108 3.232 28.157 5.086 43.639 5.086 104.81 0 189.776-84.966 189.776-189.776 0-2.586-0.052-5.161-0.154-7.722l0.012 0.367v-1.313c-0.022-1.702-0.159-3.852-0.303-6.376-1.399-23.816-4.667-79.585 39.526-126.136l26.788 25.418c-33.178 34.953-30.661 77.911-29.449 98.569 0.18 3.145 0.332 5.828 0.368 8.237l-0.014 0.952c0.091 2.396 0.142 5.21 0.142 8.035 0 125.176-101.475 226.651-226.651 226.651-30.651 0-59.881-6.084-86.548-17.111l1.505 0.551c-6.821-2.812-11.535-9.409-11.535-17.108 0-5.099 2.068-9.715 5.412-13.056v0l109.366-109.373c11.176-11.161 18.090-26.589 18.090-43.631 0-0.093 0-0.187-0.001-0.28v0.014c-0.009-17.542-7.257-33.39-18.918-44.719l-0.015-0.014c-11.259-11.18-26.771-18.089-43.896-18.089s-32.638 6.91-43.9 18.093l-109.362 109.355c-3.341 3.339-7.956 5.403-13.053 5.403-7.695 0-14.291-4.706-17.066-11.397l-0.045-0.122c-10.494-25.179-16.589-54.43-16.589-85.104 0-125.144 101.449-226.593 226.593-226.593 2.621 0 5.231 0.044 7.83 0.133l-0.378-0.010zM705.408 302.869l-26.11-26.11 93.801-93.794c13.048-13.055 52.472-58.783 11.887-99.405-10.066-11.128-24.559-18.091-40.679-18.091-2.385 0-4.735 0.152-7.040 0.448l0.273-0.029c-20.843 4.133-38.772 14.56-52.2 29.185l-0.063 0.070-90.966 90.966-26.11-26.11 90.959-90.966c18.97-20.38 44.27-34.64 72.759-39.643l0.782-0.114c3.65-0.523 7.866-0.822 12.151-0.822 26.163 0 49.723 11.14 66.197 28.936l0.054 0.059c42.425 42.454 37.758 101.973-11.894 151.625zM945.923 844.484l-157.994-96.275 6.109-55.35-110.239-110.268 26.124-26.11 122.76 122.818-5.474 49.609 113.131 68.924 37.023-37.030-68.881-113.139-49.631 5.496-151.732-151.758-33.425 33.413c-15.378 15.349-36.607 24.84-60.053 24.84s-44.675-9.492-60.054-24.842l-321.252-321.281c-15.337-15.386-24.819-36.616-24.819-60.060 0-23.437 9.477-44.661 24.807-60.048l40.669-40.677c15.382-15.349 36.614-24.84 60.064-24.84s44.682 9.491 60.065 24.842l321.252 321.282c15.219 15.319 24.626 36.428 24.626 59.734 0 13.933-3.362 27.080-9.318 38.676l0.222-0.476 142.522 142.537 55.372-6.131 96.203 158.030zM688.264 400.139l-321.254-321.282c-8.694-8.677-20.695-14.043-33.95-14.043s-25.256 5.366-33.951 14.044l-40.679 40.679c-8.644 8.705-13.985 20.698-13.985 33.939 0 13.245 5.345 25.241 13.995 33.949l321.257 321.279c8.693 8.673 20.692 14.036 33.943 14.036s25.25-5.363 33.944-14.037l40.679-40.664c8.674-8.695 14.038-20.696 14.038-33.95s-5.364-25.255-14.039-33.951l0.001 0.001zM601.805 448.334l-282.99-282.983c-3.341-3.341-5.408-7.957-5.408-13.055 0-10.197 8.266-18.463 18.463-18.463 5.098 0 9.714 2.066 13.055 5.408l282.99 282.982c3.345 3.342 5.414 7.96 5.414 13.061 0 10.197-8.266 18.463-18.463 18.463-5.101 0-9.719-2.069-13.061-5.413v0z" />
<glyph unicode="&#x4f;" glyph-name="maximise" data-tags="maximise" d="M997.6 960h-292c-0.083 0.001-0.181 0.001-0.279 0.001-14.427 0-26.122-11.695-26.122-26.122 0-0.098 0.001-0.196 0.002-0.294v0.015c0.131-14.527 11.873-26.269 26.387-26.4h229.613l-347.2-347.2c-4.819-4.808-7.8-11.456-7.8-18.8s2.981-13.992 7.8-18.8v0c4.465-4.924 10.887-8.003 18.028-8.003 0.131 0 0.261 0.001 0.391 0.003h-0.020c7.204 0.279 13.657 3.282 18.401 8.001l-0.001-0.001 346.4 345.69v-228.090c0-14.58 11.82-26.4 26.4-26.4s26.4 11.82 26.4 26.4v293.6c-0.131 14.527-11.873 26.269-26.387 26.4h-0.013zM997.6 280.801c-14.527-0.131-26.269-11.873-26.4-26.388v-228.813l-346.4 346.401c-4.811 4.811-11.458 7.787-18.8 7.787-14.684 0-26.587-11.904-26.587-26.587 0-7.342 2.976-13.989 7.787-18.8v0l347.022-345.6h-228.622c-14.518-0.082-26.255-11.871-26.255-26.4s11.737-26.318 26.247-26.4h292.008c14.368 0.517 25.883 12.032 26.399 26.352l0.001 0.048v292c-0.131 14.528-11.873 26.269-26.387 26.401h-0.013zM89.6 907.2h228.8c14.527 0.131 26.269 11.873 26.4 26.387v0.013c-0.131 14.527-11.873 26.269-26.387 26.4h-292.013c-14.527-0.131-26.269-11.873-26.4-26.387v-293.613c0.131-14.527 11.873-26.269 26.387-26.4h0.013c0.083-0.001 0.181-0.001 0.28-0.001 14.427 0 26.122 11.695 26.122 26.122 0 0.098-0.001 0.197-0.002 0.295v-0.015 228.8l346.4-346.4c4.465-4.924 10.887-8.003 18.028-8.003 0.131 0 0.261 0.001 0.391 0.003h-0.020c7.461 0.267 14.174 3.263 19.215 8.014l-0.015-0.014c4.819 4.808 7.8 11.456 7.8 18.8s-2.981 13.992-7.8 18.799l-0.001 0.001zM399.2 372.8l-346.4-346.4v228c-0.131 14.527-11.873 26.269-26.387 26.4h-0.013c-14.527-0.131-26.269-11.873-26.4-26.387v-292.013c0.28-7.204 3.282-13.657 8.001-18.401l-0.001 0.001c4.272-4.922 10.538-8.016 17.527-8.016 0.307 0 0.613 0.006 0.917 0.018l-0.044-0.001h292c14.581 0 26.4 11.82 26.4 26.4s-11.82 26.4-26.4 26.4h-228l346.4 346.399c4.811 4.811 7.787 11.458 7.787 18.8 0 14.684-11.904 26.587-26.587 26.587-7.342 0-13.989-2.976-18.8-7.787v0z" />
<glyph unicode="&#x51;" glyph-name="timer" data-tags="timer" d="M385.947 788.819c0 0 0.001 0 0.002 0 11.067 0 20.038 8.971 20.038 20.038 0 0.001 0 0.001 0 0.002v0 66.976c0.025 24.338 19.749 44.061 44.084 44.087h123.84c24.338-0.026 44.061-19.749 44.087-44.084v-66.979c0-11.067 8.972-20.039 20.039-20.039s20.039 8.972 20.039 20.039v0 66.976c-0.058 46.46-37.706 84.108-84.16 84.166h-123.843c-46.46-0.058-84.108-37.706-84.166-84.16v-66.981c0 0 0-0.001 0-0.001 0-11.067 8.971-20.038 20.038-20.038 0.001 0 0.001 0 0.002 0v0zM888.108 646.336l31.437 24.861c-35.279 44.41-76.495 82.14-122.875 112.666l-1.965 1.214-21.856-33.598c44.634-29.303 82.688-64.14 114.502-104.159l0.756-0.985zM532.047 760.412v90.671h-40.079v-90.671c-219.003-10.982-392.413-191.223-392.413-411.965 0-227.791 184.661-412.452 412.452-412.452s412.452 184.661 412.452 412.452c0 220.743-173.41 400.984-391.435 411.926l-0.978 0.039zM789.125 100.049l-50.906 50.905c-3.626 3.626-8.635 5.869-14.169 5.869-11.066 0-20.037-8.971-20.037-20.037 0-5.533 2.243-10.542 5.869-14.169v0l50.932-50.932c-60.71-54.969-140.211-90.19-227.814-95.009l-0.953-0.042v72.291c0 11.067-8.972 20.039-20.039 20.039s-20.039-8.972-20.039-20.039v0-72.291c-88.564 4.86-168.074 40.084-229.107 95.34l0.317-0.282 50.924 50.924c3.626 3.626 5.869 8.635 5.869 14.169 0 11.066-8.971 20.037-20.037 20.037-5.533 0-10.542-2.243-14.169-5.869v0l-50.897-50.897c-54.853 60.743-89.964 140.246-94.686 227.827l-0.040 0.936h71.963c11.067 0 20.039 8.972 20.039 20.039s-8.972 20.039-20.039 20.039v0h-71.901c4.949 88.409 40.144 167.758 95.305 228.692l-0.283-0.317 50.54-50.541c3.626-3.626 8.635-5.869 14.169-5.869 11.066 0 20.037 8.971 20.037 20.037 0 5.533-2.243 10.542-5.869 14.168l-50.512 50.514c65.526 59.101 152.746 95.258 248.411 95.258 95.661 0 182.878-36.154 248.732-95.543l-0.33 0.293-50.507-50.522c-3.626-3.626-5.869-8.635-5.869-14.168 0-11.066 8.971-20.037 20.037-20.037 5.533 0 10.542 2.243 14.169 5.869l50.534 50.549c54.881-60.619 90.078-139.97 94.984-227.413l0.043-0.97h-71.901c-11.067 0-20.039-8.972-20.039-20.039s8.972-20.039 20.039-20.039v0h71.963c-4.763-88.52-39.877-168.026-95.022-229.096l0.289 0.325zM532.047 449.303v169.102c0 11.067-8.972 20.039-20.039 20.039s-20.039-8.972-20.039-20.039v0-169.102c-47.537-9.683-82.804-51.148-82.804-100.851s35.267-91.168 82.142-100.738l0.662-0.113v-52.733c0-11.067 8.972-20.039 20.039-20.039s20.039 8.972 20.039 20.039v0 52.733c47.529 9.691 82.788 51.153 82.788 100.851s-35.258 91.16-82.126 100.738l-0.662 0.113zM512.008 285.688c-0.005 0-0.010 0-0.016 0-34.664 0-62.764 28.1-62.764 62.764s28.1 62.764 62.764 62.764c34.664 0 62.764-28.1 62.764-62.764v0c-0.036-34.644-28.106-62.72-62.744-62.764h-0.004z" />
<glyph unicode="&#x52;" glyph-name="refer-a-friend" data-tags="refer-a-friend" d="M630.316 273.75c2.396 3.303 3.832 7.438 3.832 11.908 0 6.826-3.35 12.869-8.495 16.576l-0.060 0.041-93.118 66.589v114.113c0 11.317-9.175 20.492-20.492 20.492s-20.492-9.175-20.492-20.492v0-114.133l-93.102-66.569c-5.204-3.756-8.552-9.804-8.552-16.634 0-11.296 9.157-20.454 20.454-20.454 4.495 0 8.651 1.45 12.027 3.908l-0.059-0.041 89.74 64.142 89.724-64.142c3.315-2.396 7.46-3.833 11.942-3.833 6.83 0 12.881 3.337 16.61 8.47l0.041 0.059zM352.82 580.851c0 16.035 0.008 63.663 76.836 67.065l67.207-73.836c3.766-4.13 9.17-6.711 15.176-6.711 6.268 0 11.879 2.811 15.642 7.241l0.024 0.029 61.868 73.262c39.199-1.773 81.575-15.588 81.575-67.049v-73.293h40.984v73.293c0 67.719-49.316 108.143-131.916 108.143-6.269-0.003-11.881-2.811-15.649-7.238l-0.024-0.029-53.087-62.864-57.729 63.423c-3.758 4.128-9.153 6.708-15.15 6.708-0.006 0-0.013 0-0.019 0h0.001c-80.535 0-126.721-39.418-126.721-108.143v-73.293h40.984zM511.984 719.532c57.304 0.356 103.621 46.892 103.621 104.246 0 0.135 0 0.27-0.001 0.404v-0.021 31.192c0.003 0.306 0.005 0.668 0.005 1.030 0 57.222-46.387 103.609-103.609 103.609s-103.609-46.387-103.609-103.609c0-0.362 0.002-0.724 0.006-1.085v0.055-31.192c0-0.119-0.001-0.26-0.001-0.4 0-57.34 46.3-103.865 103.554-104.229h0.035zM449.38 855.354c-0.006 0.336-0.010 0.731-0.010 1.128 0 34.59 28.041 62.63 62.63 62.63s62.63-28.041 62.63-62.63c0-0.397-0.004-0.792-0.011-1.187l0.001 0.059v-31.192c0.006-0.33 0.010-0.72 0.010-1.11 0-34.59-28.040-62.63-62.63-62.63s-62.63 28.040-62.63 62.63c0 0.39 0.004 0.78 0.011 1.168l-0.001-0.058zM892.052 117.437c-6.269-0.003-11.881-2.811-15.649-7.238l-0.024-0.029-53.079-62.848-57.753 63.423c-3.764 4.119-9.159 6.692-15.155 6.692-0.005 0-0.010 0-0.014 0h0.001c-80.535 0-126.721-39.418-126.721-108.143v-73.294h40.983v73.293c0 16.035-0.008 63.679 76.844 67.065l67.231-73.836c3.657-4.12 8.967-6.703 14.88-6.703 0.237 0 0.473 0.004 0.707 0.012l-0.034-0.001c6.126 0.12 11.58 2.904 15.265 7.238l0.024 0.029 61.852 73.246c39.215-1.773 81.607-15.588 81.607-67.049v-73.293h40.984v73.293c0 67.719-49.324 108.143-131.948 108.143zM823.836 147.99c57.296 0.361 103.604 46.891 103.604 104.238 0 0.138 0 0.275-0.001 0.413v-0.021 31.192c0.003 0.304 0.005 0.663 0.005 1.022 0 57.222-46.387 103.609-103.609 103.609s-103.609-46.387-103.609-103.609c0-0.359 0.002-0.718 0.005-1.077v0.055-31.192c0-0.116-0.001-0.254-0.001-0.392 0-57.347 46.309-103.878 103.571-104.238h0.034zM761.216 283.812c-0.006 0.335-0.010 0.73-0.010 1.126 0 34.59 28.041 62.63 62.63 62.63s62.63-28.041 62.63-62.63c0-0.396-0.004-0.791-0.011-1.185l0.001 0.059v-31.192c0.006-0.331 0.010-0.721 0.010-1.112 0-34.59-28.040-62.63-62.63-62.63s-62.63 28.040-62.63 62.63c0 0.391 0.004 0.781 0.011 1.171l-0.001-0.058zM268.395 117.437c-6.269-0.003-11.881-2.811-15.649-7.238l-0.024-0.029-53.087-62.848-57.745 63.423c-3.764 4.119-9.159 6.692-15.155 6.692-0.005 0-0.010 0-0.014 0h0.001c-80.535 0-126.721-39.418-126.721-108.143v-73.293h40.984v73.293c0 16.035-0.008 63.679 76.844 67.065l67.215-73.836c3.697-4.12 9.040-6.7 14.984-6.7 0.2 0 0.399 0.003 0.598 0.009l-0.029-0.001c6.126 0.12 11.58 2.904 15.265 7.238l0.024 0.029 61.868 73.246c39.207-1.773 81.591-15.588 81.591-67.049v-73.293h40.984v73.293c-0.001 67.719-49.317 108.143-131.933 108.143zM200.164 147.99c57.296 0.36 103.605 46.891 103.605 104.238 0 0.138 0 0.275-0.001 0.413v-0.021 31.192c0.003 0.304 0.005 0.663 0.005 1.022 0 57.222-46.387 103.609-103.609 103.609s-103.609-46.387-103.609-103.609c0-0.359 0.002-0.718 0.005-1.077v0.055-31.192c0-0.116-0.001-0.254-0.001-0.392 0-57.347 46.308-103.878 103.57-104.238h0.034zM137.544 283.812c-0.006 0.335-0.010 0.73-0.010 1.126 0 34.59 28.041 62.63 62.63 62.63s62.63-28.041 62.63-62.63c0-0.396-0.004-0.791-0.011-1.185l0.001 0.059v-31.192c0.006-0.331 0.010-0.721 0.010-1.112 0-34.59-28.040-62.63-62.63-62.63s-62.63 28.040-62.63 62.63c0 0.391 0.004 0.781 0.011 1.171l-0.001-0.058z" />
<glyph unicode="&#x53;" glyph-name="star" data-tags="star" d="M512 137.6l316.8-201.6-83.2 377.6 278.4 256-368 32-144 358.4-144-358.4-368-32 278.4-256-83.2-377.6 316.8 201.6z" />
<glyph unicode="&#x56;" glyph-name="specialty-games" data-tags="specialty-games" d="M917.508 960h-811.026c-58.682-0.242-106.194-47.725-106.482-106.373v-811.228c0-0.002 0-0.004 0-0.007 0-58.759 47.634-106.393 106.393-106.393 0.031 0 0.063 0 0.094 0h811.822c58.395 0.115 105.69 47.48 105.69 105.892 0 0.46-0.003 0.919-0.009 1.377l0.001-0.070v810.4c0 0.002 0 0.005 0 0.007 0 58.76-47.634 106.394-106.394 106.394-0.031 0-0.063 0-0.094 0h0.005zM981.557 43.199c-0.121-35.315-28.731-63.907-64.041-64h-811.035c-35.319 0.093-63.929 28.685-64.049 63.988v810.412c0.121 35.315 28.731 63.908 64.041 64h811.035c35.319-0.093 63.929-28.685 64.049-63.988v-0.012zM810.225 764h-602.865c-10.548-0.145-19.062-8.653-19.214-19.185v-601.616c0.153-10.547 8.666-19.055 19.201-19.199h602.078c10.388 0.288 18.845 8.186 20.007 18.304l0.009 0.096v602.401c-0.153 10.547-8.666 19.055-19.201 19.2h-0.014zM639.693 463.199h-112.086v112.801h112.086zM678.123 576h112.887v-112.801h-112.887zM527.607 614.399v112h112.086v-112zM489.177 614.399h-112.086v112h112.086zM489.177 576v-112.801h-112.086v112.801zM338.661 463.199h-112.887v112.801h112.887zM225.774 424.8h112.887v-112h-112.887zM377.091 424.8h112.086v-112h-112.086zM489.177 274.399v-112.8h-112.086v112.8zM527.607 274.399h112.086v-112.8h-112.086zM527.607 312.799v112h112.086v-112zM678.123 424.799h112.887v-112h-112.887zM791.010 614.399h-112.887v112h112.887zM338.661 726.399v-112h-112.887v112zM225.774 274.399h112.887v-112.8h-112.887zM678.123 161.599v112.8h112.887v-112.8zM282.618 651.199c0.344-0.035 0.744-0.056 1.149-0.056 2.234 0 4.325 0.616 6.111 1.686l-0.054-0.030c2.5 0.899 4.639 2.263 6.407 4.002l-0.002-0.002c3.447 2.937 5.618 7.282 5.618 12.134 0 0.234-0.005 0.467-0.015 0.699l0.001-0.033c-0.163 2.631-0.736 5.083-1.657 7.357l0.056-0.157c-2.65 7.075-9.354 12.019-17.213 12.019s-14.564-4.945-17.172-11.893l-0.042-0.126c-1.041-1.731-1.657-3.819-1.657-6.052 0-0.404 0.020-0.804 0.060-1.198l-0.004 0.050c0.411-9.997 8.416-17.997 18.377-18.399l0.037-0.001zM596.46 684c-3.309 3.343-7.899 5.414-12.973 5.414-2.542 0-4.963-0.52-7.162-1.459l0.119 0.045c-4.897-1.72-8.685-5.505-10.372-10.282l-0.036-0.118c-1.041-1.731-1.657-3.819-1.657-6.052 0-0.404 0.020-0.804 0.060-1.198l-0.004 0.050c0.163-2.631 0.736-5.083 1.657-7.356l-0.056 0.156c1.724-4.895 5.512-8.68 10.29-10.364l0.118-0.036c1.732-1.041 3.822-1.656 6.056-1.656 0.405 0 0.805 0.020 1.199 0.060l-0.050-0.004c0.219-0.012 0.476-0.019 0.735-0.019 5.005 0 9.42 2.524 12.043 6.368l0.032 0.050c1.737 1.765 3.103 3.901 3.965 6.279l0.038 0.121c1.041 1.73 1.657 3.819 1.657 6.051 0 0.404-0.020 0.804-0.060 1.198l0.004-0.050c0.009 0.199 0.014 0.432 0.014 0.667 0 4.852-2.172 9.197-5.596 12.116l-0.022 0.019zM751.78 527.199c-0.9 2.499-2.266 4.636-4.005 6.402l0.002-0.002c-3.4 3.339-8.064 5.4-13.21 5.4s-9.81-2.061-13.213-5.403l0.003 0.003c-1.737-1.765-3.103-3.901-3.965-6.279l-0.038-0.121c-1.041-1.73-1.657-3.819-1.657-6.051 0-0.404 0.020-0.804 0.060-1.198l-0.004 0.050c0.163-2.631 0.736-5.083 1.657-7.356l-0.056 0.156c0.901-2.499 2.266-4.635 4.005-6.402l-0.002 0.002c3.384-3.016 7.87-4.858 12.786-4.858 10.354 0 18.799 8.173 19.237 18.419l0.001 0.040c-0.163 2.63-0.736 5.082-1.657 7.356l0.056-0.156zM419.523 506.399c1.766-1.736 3.905-3.1 6.284-3.962l0.121-0.038c1.732-1.040 3.823-1.656 6.057-1.656 0.404 0 0.804 0.020 1.198 0.060l-0.050-0.004c9.999 0.402 18.004 8.402 18.413 18.361l0.001 0.038c-0.163 2.631-0.736 5.083-1.657 7.356l0.056-0.156c-0.901 2.499-2.266 4.635-4.005 6.402l0.002-0.002c-3.35 3.313-7.958 5.36-13.044 5.36-2.513 0-4.909-0.5-7.095-1.405l0.123 0.045c-4.897-1.72-8.685-5.505-10.372-10.282l-0.036-0.118c-1.041-1.731-1.656-3.819-1.656-6.052 0-0.404 0.020-0.804 0.060-1.198l-0.004 0.050c-0.009-0.199-0.014-0.432-0.014-0.666 0-4.852 2.171-9.196 5.595-12.115l0.022-0.019zM300.232 376c-1.724 4.895-5.512 8.68-10.29 10.363l-0.118 0.036c-2.137 1.024-4.645 1.623-7.294 1.623-5.034 0-9.564-2.162-12.71-5.609l-0.012-0.013c-1.738-1.764-3.103-3.901-3.965-6.278l-0.038-0.121c-1.041-1.731-1.657-3.82-1.657-6.052 0-0.404 0.020-0.804 0.060-1.197l-0.004 0.050c0.163-2.631 0.736-5.083 1.657-7.356l-0.056 0.156c0.9-2.499 2.266-4.636 4.005-6.402l-0.002 0.002c2.941-3.444 7.287-5.614 12.141-5.614 0.235 0 0.469 0.005 0.702 0.015l-0.033-0.001c2.633 0.163 5.087 0.736 7.363 1.656l-0.157-0.056c4.897 1.72 8.685 5.505 10.372 10.282l0.036 0.118c1.041 1.731 1.657 3.819 1.657 6.052 0 0.404-0.020 0.804-0.060 1.198l0.004-0.050c-0.163 2.631-0.736 5.083-1.657 7.357l0.056-0.157zM596.46 381.6c-1.766 1.736-3.905 3.1-6.283 3.962l-0.121 0.038c-2.137 1.024-4.645 1.622-7.293 1.622-5.034 0-9.564-2.162-12.71-5.609l-0.012-0.013c-3.447-2.937-5.618-7.282-5.618-12.134 0-0.234 0.005-0.467 0.015-0.699l-0.001 0.033c0.163-2.631 0.736-5.083 1.657-7.356l-0.056 0.156c1.723-4.895 5.511-8.68 10.29-10.364l0.118-0.036c1.732-1.040 3.823-1.656 6.057-1.656 0.404 0 0.804 0.020 1.198 0.060l-0.050-0.004c5.025 0.173 9.527 2.281 12.809 5.598l0.002 0.002c1.737 1.765 3.102 3.901 3.965 6.279l0.038 0.121c1.041 1.731 1.657 3.819 1.657 6.052 0 0.404-0.020 0.804-0.060 1.198l0.004-0.050c0.009 0.199 0.014 0.432 0.014 0.666 0 4.852-2.172 9.197-5.596 12.115l-0.022 0.019zM726.961 235.199c-2.501-0.899-4.639-2.263-6.407-4.002l0.002 0.002c-3.447-2.937-5.618-7.282-5.618-12.133 0-0.234 0.005-0.468 0.015-0.7l-0.001 0.033c0.163-2.631 0.736-5.083 1.657-7.356l-0.056 0.156c1.724-4.894 5.512-8.679 10.29-10.363l0.118-0.036c1.732-1.041 3.822-1.656 6.056-1.656 0.405 0 0.805 0.020 1.199 0.060l-0.050-0.004c0.090-0.002 0.196-0.004 0.302-0.004 2.243 0 4.348 0.595 6.164 1.636l-0.061-0.032c4.896 1.72 8.684 5.505 10.372 10.282l0.036 0.118c1.041 1.731 1.657 3.82 1.657 6.052 0 0.404-0.020 0.804-0.060 1.197l0.004-0.050c0.009 0.199 0.014 0.432 0.014 0.667 0 4.852-2.172 9.197-5.596 12.115l-0.022 0.019c-3.309 3.344-7.898 5.414-12.972 5.414-2.543 0-4.964-0.52-7.163-1.46l0.119 0.045zM415.52 211.199c1.724-4.895 5.512-8.68 10.291-10.363l0.118-0.036c1.732-1.041 3.822-1.656 6.056-1.656 0.405 0 0.805 0.020 1.199 0.060l-0.050-0.004c0.073-0.002 0.159-0.003 0.245-0.003 2.379 0 4.545 0.914 6.166 2.409l-0.006-0.006c4.897 1.72 8.685 5.505 10.372 10.282l0.036 0.118c1.041 1.731 1.656 3.819 1.656 6.052 0 0.404-0.020 0.804-0.060 1.197l0.004-0.050c0.009 0.199 0.014 0.433 0.014 0.668 0 4.852-2.172 9.197-5.596 12.115l-0.022 0.019c-3.341 3.467-8.024 5.621-13.211 5.621-7.86 0-14.564-4.945-17.172-11.894l-0.042-0.126c-1.041-1.731-1.656-3.819-1.656-6.052 0-0.404 0.020-0.804 0.060-1.198l-0.004 0.050c0.163-2.631 0.736-5.083 1.657-7.357l-0.056 0.157z" />
<glyph unicode="&#x57;" glyph-name="switch" data-tags="switch" d="M794.318 345.919l111.651-111.651h-252.012c-98.891 0-153.122 102.081-210.542 213.732 57.421 111.651 111.651 213.732 210.542 213.732h252.012l-111.651-111.651 44.66-44.66 181.832 188.212-185.022 185.022-44.66-44.66 111.651-111.651h-252.013c-121.221 0-188.212-98.891-245.632-207.352-54.231 108.461-121.221 207.352-242.442 207.352h-162.692v-60.611h162.692c98.891 0 153.122-102.081 210.542-213.732-57.421-111.651-111.651-213.732-210.542-213.732h-162.692v-60.611h162.692c121.221 0 188.212 98.891 245.632 207.352 57.421-108.461 124.411-207.352 245.632-207.352h252.012l-111.651-111.651 44.66-44.66 185.022 185.022-185.022 185.022z" />
<glyph unicode="&#x5b;" glyph-name="instant-transactions" data-tags="instant-transactions" d="M603.198 634.4c14.153 13.994 22.985 33.344 23.2 54.758v9.641c0.002 0.21 0.003 0.458 0.003 0.706 0 38.729-30.689 70.289-69.076 71.69l-0.128 0.004v38.801c0 9.278-7.522 16.8-16.8 16.8s-16.8-7.522-16.8-16.8v0-38.4h-21.6v38.4c0 9.278-7.522 16.8-16.8 16.8s-16.8-7.522-16.8-16.8v0-38.4h-66c-9.278 0-16.8-7.522-16.8-16.8s7.522-16.8 16.8-16.8h24.4v-215.201h-24.4c-9.278 0-16.8-7.522-16.8-16.8s7.522-16.8 16.8-16.8v0h66v-38.4c0-9.278 7.522-16.8 16.8-16.8s16.8 7.522 16.8 16.8v0 37.201h21.6v-38.4c0-9.278 7.522-16.8 16.8-16.8s16.8 7.522 16.8 16.8v0 38.4h2.4c47.6 0 80.8 28.799 80.8 70.4v10.398c-0.175 27.684-14.88 51.895-36.865 65.41l-0.335 0.192zM459.998 737.599h93.2c0.132 0.002 0.287 0.003 0.443 0.003 21.406 0 38.759-17.353 38.759-38.759 0-0.156-0.001-0.311-0.003-0.466v0.024-9.602c0.006-0.259 0.009-0.563 0.009-0.869 0-22.134-17.286-40.23-39.095-41.524l-0.114-0.005h-93.2zM606.398 558.4c0-26.801-25.2-36.4-46.8-36.4h-99.6v90.799h99.6c0.62 0.031 1.347 0.048 2.077 0.048 24.325 0 44.115-19.414 44.722-43.592l0.001-0.056zM775.198 77.6c-9.316-0.155-16.808-7.742-16.808-17.080 0-0.183 0.003-0.365 0.009-0.546l-0.001 0.027c0-10.801-6.4-22-19.2-32.801-3.645-3.081-5.945-7.657-5.945-12.77 0-4.331 1.65-8.277 4.356-11.244l-0.012 0.013c3.011-3.675 7.549-6.001 12.631-6.001 0.060 0 0.119 0 0.179 0.001h-0.009c0.097-0.002 0.211-0.003 0.326-0.003 4.16 0 7.966 1.515 10.897 4.022l-0.023-0.019c20.4 17.6 31.2 37.6 31.2 58.4v1.6c-0.466 9.157-8.004 16.405-17.234 16.405-0.129 0-0.257-0.001-0.385-0.004h0.019zM673.598-6.801c-13.523-4.772-30.3-9.333-47.482-12.778l-2.518-0.421c-7.786-1.602-13.558-8.399-13.558-16.545 0-1.224 0.13-2.417 0.378-3.566l-0.020 0.111c1.687-7.823 8.547-13.6 16.755-13.6 0.016 0 0.031 0 0.047 0h-0.002c0.157-0.010 0.341-0.016 0.526-0.016 0.955 0 1.875 0.151 2.737 0.432l-0.063-0.018c21.791 4.312 40.052 9.15 57.864 14.981l-3.464-0.981c6.834 2.368 11.653 8.749 11.653 16.257 0 1.911-0.312 3.749-0.889 5.466l0.035-0.121c-2.44 6.871-8.885 11.704-16.459 11.704-1.983 0-3.888-0.331-5.663-0.941l0.123 0.037zM414.798-22c-20.156 3.412-37.277 7.442-53.993 12.415l3.193-0.815c-1.433 0.434-3.079 0.683-4.784 0.683-9.438 0-17.088-7.651-17.088-17.088 0-7.721 5.121-14.246 12.151-16.364l0.121-0.031c14.405-4.403 32.74-8.71 51.434-11.97l2.966-0.428c0.8 0 2-0.4 2.8-0.4 8.285 0.163 15.146 6.065 16.78 13.886l0.020 0.114c0.199 0.978 0.314 2.102 0.314 3.253 0 8.304-5.942 15.221-13.807 16.729l-0.107 0.017zM348.798 144.4c-2.538 6.522-8.768 11.060-16.057 11.060-2.134 0-4.176-0.389-6.061-1.099l0.118 0.039c-19.727-7.421-36.744-16.311-52.475-26.958l0.875 0.558c-4.373-3.065-7.196-8.082-7.196-13.758 0-3.699 1.199-7.117 3.229-9.889l-0.033 0.047c2.99-4.374 7.955-7.207 13.581-7.207 0.147 0 0.294 0.002 0.441 0.006h-0.022c0.135-0.004 0.294-0.007 0.454-0.007 3.473 0 6.664 1.209 9.174 3.23l-0.028-0.022c12.781 8.913 27.462 16.489 43.114 22.003l1.286 0.395c6.319 2.484 10.711 8.533 10.711 15.607 0 2.156-0.408 4.216-1.15 6.108l0.039-0.114zM295.198 20c-12.33 7.325-21.897 18.181-27.436 31.167l-0.164 0.433c-2.204 6.981-8.621 11.954-16.2 11.954-9.363 0-16.954-7.591-16.954-16.954 0-1.785 0.276-3.505 0.787-5.12l-0.033 0.12c7.791-20.933 22.077-37.934 40.372-48.96l0.428-0.239c2.671-1.926 5.989-3.112 9.579-3.201h0.021c0.057-0.001 0.124-0.001 0.192-0.001 9.299 0 16.838 7.539 16.838 16.838 0 5.789-2.922 10.896-7.371 13.927l-0.058 0.038zM545.598-29.201c-10.8-0.398-21.6-0.799-32.4-0.799-6.4 0-13.6 0-20 0.4-0.256 0.014-0.555 0.022-0.857 0.022-9.135 0-16.561-7.314-16.743-16.405v-0.017c-0.002-0.11-0.004-0.239-0.004-0.368 0-9.23 7.248-16.767 16.363-17.23l0.041-0.002c7.2-0.4 14-0.4 21.2-0.4 11.2 0 22.8 0.4 34 0.799 8.965 0.537 16.033 7.939 16.033 16.991 0 9.4-7.62 17.020-17.020 17.020-0.216 0-0.43-0.004-0.644-0.012l0.031 0.001zM741.999 113.199c1.453 2.432 2.312 5.363 2.312 8.496 0 6.306-3.481 11.799-8.626 14.662l-0.085 0.044c-14.979 8.731-32.324 16.464-50.525 22.281l-1.875 0.517c-1.633 0.571-3.515 0.901-5.475 0.901-9.431 0-17.076-7.645-17.076-17.076 0-7.527 4.87-13.916 11.631-16.19l0.12-0.035c18.042-6.077 33.373-12.839 47.969-20.782l-1.569 0.782c2.399-1.464 5.291-2.35 8.387-2.398h0.013c6.295 0.215 11.74 3.657 14.755 8.717l0.045 0.082zM600.798 178c-4 0.4-8.4 1.199-12.8 1.6 3.6 9.6 7.2 19.199 11.6 29.199 23.418 53.324 51.824 99.3 85.649 140.673l-0.849-1.071c10.4 12.398 21.2 24.799 32 36.799 27.2 30.4 55.2 62 75.6 99.201 25.533 44.981 40.582 98.806 40.582 156.146 0 177.114-143.579 320.693-320.693 320.693s-320.693-143.579-320.693-320.693c0-57.501 15.133-111.467 41.635-158.134l-0.83 1.588c20.4-37.201 48.4-68.801 75.6-99.201 10.8-12 21.6-24.398 32-36.799 33.078-40.276 61.494-86.262 83.311-135.81l1.489-3.79c4.4-10 8-19.602 11.6-29.201-9.6-1.199-18.8-2.4-28-4-8.126-1.435-14.219-8.442-14.219-16.872 0-0.963 0.080-1.908 0.232-2.827l-0.014 0.1c1.378-7.996 8.26-14.002 16.546-14.002 0.089 0 0.179 0.001 0.268 0.002h-0.013c0.137-0.010 0.298-0.016 0.459-0.016 0.84 0 1.645 0.152 2.388 0.431l-0.047-0.015c10.4 1.6 21.6 3.199 32.4 4.4 2.357-8.020 4.721-18.409 6.541-28.984l0.259-1.816 0.4-3.6c1.649-13.945 5.028-26.653 9.951-38.559l-0.351 0.959c5.149-12.716 14.587-22.802 26.482-28.659l0.318-0.142c6.428-3.033 13.963-4.803 21.912-4.803 0.172 0 0.343 0.001 0.514 0.002h-0.026c0.304-0.007 0.663-0.010 1.023-0.010 7.767 0 15.12 1.775 21.675 4.941l-0.298-0.13c12.213 5.999 21.65 16.085 26.669 28.437l0.131 0.363c4.572 10.947 7.951 23.655 9.533 36.914l0.067 0.686 0.4 3.6c2.079 12.392 4.443 22.781 7.321 32.955l-0.521-2.155c6-0.801 12-1.201 18-2h2.4c0.045 0 0.097-0.001 0.15-0.001 8.436 0 15.423 6.209 16.638 14.306l0.011 0.093c0.099 0.69 0.155 1.487 0.155 2.297 0 8.545-6.27 15.626-14.46 16.893l-0.096 0.012zM569.198 222c-13.467-29.204-24.168-63.168-30.429-98.664l-0.371-2.538-0.4-3.6c-1.35-11.012-3.879-21.015-7.495-30.48l0.295 0.88c-1.844-5.032-5.373-9.079-9.888-11.544l-0.112-0.056c-2.435-0.95-5.253-1.5-8.2-1.5s-5.765 0.55-8.358 1.554l0.158-0.054c-4.431 2.757-7.882 6.723-9.937 11.437l-0.063 0.163c-3.321 8.585-5.85 18.588-7.137 28.975l-0.063 0.625-0.4 3.6c-6.858 38.115-17.544 72.060-31.92 103.983l1.12-2.782c-24.905 56.362-54.906 104.955-90.537 148.789l0.937-1.19c-10.8 12.801-22 25.6-32.8 37.6-27.2 30.4-52.4 59.201-71.2 93.201-22.572 40.035-35.87 87.897-35.87 138.865 0 158.359 128.376 286.735 286.735 286.735s286.735-128.376 286.735-286.735c0-0.164 0-0.328 0-0.492v0.026c-0.924-50.948-14.604-98.507-37.966-139.873l0.766 1.474c-18.8-34-44-62.801-71.2-93.201-10.8-12.4-22-24.799-32.8-37.6-34.967-42.58-64.994-91.204-88.030-143.596l-1.57-4.003z" />
<glyph unicode="&#x60;" glyph-name="dbt" data-tags="dbt" d="M1000 650.932c12.821 0.037 23.2 10.439 23.2 23.265 0 0.011 0 0.022 0 0.033v-0.002 97.199c0.001 0.089 0.002 0.193 0.002 0.298 0 10.275-6.625 19.003-15.837 22.145l-0.165 0.049-488 165.479c-2.285 0.383-4.917 0.602-7.6 0.602s-5.315-0.219-7.88-0.64l0.28 0.038-488-165.479c-9.377-3.19-16.002-11.918-16.002-22.194 0-0.105 0.001-0.21 0.002-0.315v0.016-97.199c0-0.009 0-0.020 0-0.031 0-12.826 10.379-23.228 23.196-23.265h104.804v-482.78c-70.456-3.085-126.408-60.953-126.408-131.89 0-0.512 0.003-1.024 0.009-1.535l-0.001 0.078v-75.51c0-0.009 0-0.020 0-0.031 0-12.826 10.379-23.228 23.196-23.265h976.004c12.821 0.037 23.2 10.439 23.2 23.265 0 0.011 0 0.022 0 0.033v-0.002 75.51c-0.256 71.687-56.788 130.087-127.707 133.336l-0.293 0.011v482.78zM976.8 34.805v0-52.214h-929.6v52.214c0.014 48.226 39.003 87.34 87.179 87.559h756.821c47.415-0.645 85.604-39.232 85.604-86.74 0-0.288-0.001-0.576-0.004-0.863v0.044zM176 168.956v481.977h83.2v-481.977zM306.4 168.956v481.977h117.6v-481.977zM469.6 168.956v481.977h84v-481.977zM600 168.956v481.977h117.6v-481.977zM764 168.956v481.977h84.8v-481.977zM47.2 697.523v57.837l464.8 157.446 464.8-157.446v-56.231z" />
<glyph unicode="&#x61;" glyph-name="general" data-tags="general" d="M511.968-64c-0.534-0.027-1.159-0.042-1.788-0.042-21.145 0-38.286 17.141-38.286 38.286 0 0.629 0.015 1.254 0.045 1.875l-0.003-0.088v64.064c0.49 20.4 17.143 36.75 37.615 36.75 0.85 0 1.694-0.028 2.53-0.084l-0.114 0.006c22.099-0.041 40.004-17.936 40.064-40.026v-64.038c-0.491-20.418-17.159-36.782-37.649-36.782-0.85 0-1.693 0.028-2.529 0.084l0.113-0.006zM511.968 158.496c-0.723-0.049-1.566-0.078-2.417-0.078-20.472 0-37.125 16.35-37.614 36.704l-0.001 0.045v91.040c0 0.074 0 0.161 0 0.249 0 109.616 57.186 205.876 143.351 260.573l1.257 0.746c54.89 30.613 91.402 88.324 91.402 154.562 0 0.652-0.004 1.303-0.011 1.953l0.001-0.099c0 95.424-89.984 179.104-192.576 179.104-4.128 0.256-7.84 0.384-11.584 0.384-50.183-0.537-95.603-20.497-129.186-52.703l0.066 0.063c-36.028-31.897-58.624-78.261-58.624-129.902 0-0.107 0-0.215 0-0.322v0.017c-0.486-20.398-17.136-36.748-37.606-36.748-0.842 0-1.678 0.028-2.507 0.082l0.113-0.006c-0.73-0.050-1.581-0.079-2.439-0.079-20.474 0-37.13 16.35-37.624 36.705l-0.001 0.046c-0.004 0.5-0.006 1.092-0.006 1.684 0 72.449 32.067 137.407 82.783 181.457l0.295 0.251c50.183 46.947 117.824 75.777 192.199 75.777 0.256 0 0.513 0 0.769-0.001h3.352c146.944-3.424 269.216-118.112 272.672-255.616 0.001-0.257 0.001-0.561 0.001-0.865 0-93.893-50.939-175.889-126.689-219.859l-1.216-0.652c-65.331-41.125-108.107-112.853-108.107-194.573 0-0.783 0.004-1.566 0.012-2.347l-0.001 0.12v-91.040c-0.516-20.405-17.18-36.749-37.661-36.749-0.845 0-1.684 0.028-2.516 0.083l0.113-0.006z" />
<glyph unicode="&#x62;" glyph-name="video-poker" data-tags="video-poker" d="M917.6-64h-811.2c-58.656 0.265-106.135 47.744-106.4 106.375v811.225c0.265 58.656 47.744 106.135 106.375 106.4h810.425c0.048 0 0.106 0 0.163 0 58.891 0 106.675-47.56 107.037-106.366v-810.434c0-0.048 0-0.106 0-0.163 0-58.891-47.56-106.675-106.366-107.037h-0.034zM106.4 917.6c-35.303-0.107-63.893-28.697-64-63.99v-810.41c0.107-35.303 28.697-63.893 63.99-64h810.41c35.303 0.107 63.893 28.697 64 63.99v810.41c-0.107 35.303-28.697 63.893-63.99 64h-0.010zM470.4 281.6c-4.52 0.193-8.508 2.322-11.179 5.573l-0.021 0.027-83.2 111.2c-1.868 2.268-3 5.202-3 8.4s1.132 6.132 3.018 8.423l-0.018-0.023 83.2 111.2c2.645 3.303 6.678 5.4 11.2 5.4s8.555-2.097 11.178-5.372l0.022-0.028 83.2-111.2c1.868-2.268 3-5.202 3-8.4s-1.132-6.132-3.018-8.423l0.018 0.023-83.2-111.2c-2.372-3.408-6.27-5.61-10.682-5.61-0.182 0-0.364 0.004-0.544 0.011l0.026-0.001zM404 406.4l65.6-88 65.6 88-65.6 88zM636.8 114.4h-332.8c-0.085-0.001-0.185-0.001-0.286-0.001-22.818 0-41.315 18.498-41.315 41.315 0 0.1 0 0.201 0.001 0.301v-0.015 500c-0.001 0.085-0.001 0.185-0.001 0.286 0 22.818 18.498 41.315 41.315 41.315 0.1 0 0.201 0 0.301-0.001h333.585c0.085 0.001 0.185 0.001 0.286 0.001 22.818 0 41.315-18.497 41.315-41.315 0-0.1 0-0.201-0.001-0.301v0.015-500c-0.803-22.924-19.405-41.246-42.366-41.6h-0.034zM304 670.4c-0.035 0-0.076 0.001-0.117 0.001-7.447 0-13.484-6.037-13.484-13.484 0-0.041 0-0.082 0.001-0.123v0.006-500c0-0.035-0.001-0.076-0.001-0.117 0-7.447 6.037-13.484 13.484-13.484 0.041 0 0.082 0 0.123 0.001h333.594c0.035 0 0.076-0.001 0.117-0.001 7.447 0 13.484 6.037 13.484 13.484 0 0.041 0 0.082-0.001 0.123v-0.006 499.2c0 0.035 0.001 0.076 0.001 0.117 0 7.447-6.037 13.484-13.484 13.484-0.041 0-0.082 0-0.123-0.001h-333.594zM720 198.4h-55.2c-0.035 0-0.076-0.001-0.117-0.001-7.447 0-13.484 6.037-13.484 13.484 0 0.041 0 0.082 0.001 0.123v-0.006c0.226 7.419 6.181 13.374 13.579 13.599l0.021 0.001h55.2c0.035 0 0.076-0.001 0.117-0.001 7.447 0 13.484 6.037 13.484 13.484 0 0.041 0 0.082-0.001 0.123v-0.006 500.8c0 0.035 0.001 0.076 0.001 0.117 0 7.447-6.037 13.484-13.484 13.484-0.041 0-0.082 0-0.123-0.001h-332.794c-0.035 0-0.076 0.001-0.117 0.001-7.447 0-13.484-6.037-13.484-13.484 0-0.041 0-0.082 0.001-0.123v0.006-55.2c0-7.511-6.089-13.6-13.6-13.6s-13.6 6.089-13.6 13.6v55.2c-0.001 0.085-0.001 0.185-0.001 0.286 0 22.818 18.498 41.315 41.315 41.315 0.1 0 0.201 0 0.301-0.001h331.985c0.085 0.001 0.185 0.001 0.286 0.001 22.818 0 41.315-18.498 41.315-41.315 0-0.1 0-0.201-0.001-0.301v0.015-500c0.001-0.085 0.001-0.185 0.001-0.286 0-22.818-18.498-41.315-41.315-41.315-0.1 0-0.201 0-0.301 0.001h0.015z" />
<glyph unicode="&#x68;" glyph-name="hide" data-tags="hide" d="M1024 512h-1024v-128h1024z" />
<glyph unicode="&#x6a;" glyph-name="trophy" data-tags="trophy" d="M733.2-64h-441.6c-28.8 0-52.8 25.6-52.8 57.6v144c0 32 23.2 57.6 52.8 57.6h442.4c28.8 0 52.8-25.6 52.8-57.6v-144c-0.8-32-24-57.6-53.6-57.6zM291.6 154.4c-5.6 0-11.2-7.2-11.2-16.8v-144c0-9.6 6.4-16.8 11.2-16.8h442.4c5.6 0 11.2 7.2 11.2 16.8v144c0 9.6-6.4 16.8-11.2 16.8zM620.4 48.8h-216c-0.043 0-0.094-0.001-0.145-0.001-11.408 0-20.655 9.248-20.655 20.655 0 0.051 0 0.102 0.001 0.153v-0.008c-0.006 0.188-0.010 0.41-0.010 0.632 0 11.144 9.034 20.178 20.178 20.178 0.222 0 0.444-0.004 0.664-0.011l-0.032 0.001h216c11.488 0 20.8-9.312 20.8-20.8s-9.312-20.8-20.8-20.8v0zM512.4 385.6c-372 0-500.8 406.4-502.4 410.4-0.513 1.756-0.809 3.773-0.809 5.859 0 4.704 1.502 9.057 4.053 12.606l-0.044-0.064c3.514 4.89 9.186 8.038 15.593 8.038 0.425 0 0.846-0.014 1.264-0.041l-0.057 0.003h143.2v-40.8h-113.6c34.4-86.4 164.8-355.2 452.8-355.2s418.4 268.8 452.8 355.2h-114.4v40.8h143.2c6.736-0.128 12.73-3.195 16.773-7.967l0.027-0.033c2.507-3.484 4.009-7.837 4.009-12.541 0-2.086-0.295-4.103-0.847-6.011l0.038 0.153c-0.8-4-129.6-410.4-501.6-410.4zM515.6 386.4h-8.8c-117.6 11.2-204 112-248 291.2-19.615 78.566-31.238 168.94-31.997 261.902l-0.003 0.498c0.275 11.105 9.343 20.002 20.489 20.002 0.109 0 0.219-0.001 0.328-0.003h529.584c0.093 0.002 0.202 0.002 0.311 0.002 11.146 0 20.214-8.897 20.488-19.977v-0.025c-0.762-93.458-12.385-183.832-33.664-270.408l1.664 8.008c-44-179.2-130.4-280-248-291.2zM510 427.2h4.8c213.6 21.6 238.4 399.2 241.6 492h-488c3.2-92.8 28-470.4 241.6-492zM377.2 161.6l-31.2 26.4c91.2 105.6 81.6 213.6 81.6 214.4l40.8 4c0.8-4.8 10.4-125.6-91.2-244.8zM647.6 161.6c-102.4 119.2-92 240-91.2 244.8l40.8-4c0-0.8-8.8-109.6 81.6-214.4z" />
<glyph unicode="&#x6b;" glyph-name="poker" data-tags="poker" d="M617.191 404l-153.6 164.8c-3.955 4.073-9.482 6.6-15.6 6.6s-11.645-2.527-15.594-6.594l-0.005-0.005-152.8-165.601c-13.576-16.151-21.969-37.055-22.399-59.908l-0.001-0.092c0.594-44.972 28.183-83.355 67.277-99.731l0.723-0.269c12.847-5.343 27.771-8.446 43.419-8.446 11.32 0 22.26 1.624 32.601 4.651l-0.819-0.205c10.101 3.278 18.835 7.3 26.983 12.196l-0.584-0.325v-37.471c0.018-11.921 9.685-21.577 21.608-21.577 11.642 0 21.133 9.206 21.591 20.736l0.001 0.042v39.2c8.046-5.033 17.314-9.375 27.108-12.551l0.892-0.25c9.472-3.044 20.369-4.799 31.676-4.799 0.114 0 0.228 0 0.342 0.001h-0.018c15.344 0.153 29.895 3.374 43.126 9.077l-0.726-0.278c13.545 6.087 25.172 13.873 35.278 23.273l-0.079-0.072c10.056 9.498 18.165 20.939 23.743 33.737l0.257 0.663c5.562 12.441 8.801 26.962 8.801 42.24 0 0.056 0 0.113 0 0.169v-0.009c-0.666 22.528-8.697 43.060-21.754 59.4l0.154-0.2zM592.392 318.4c-3.245-8.235-8.153-15.2-14.349-20.756l-0.051-0.045c-5.989-6.071-13.174-10.946-21.175-14.245l-0.425-0.155c-7.777-3.471-16.853-5.492-26.402-5.492-7.143 0-14.022 1.131-20.467 3.224l0.468-0.132c-6.699 2.015-12.537 4.738-17.879 8.167l0.279-0.167c-5.616 3.214-10.381 7.214-14.334 11.92l-0.066 0.080c-3.534 3.938-6.685 8.347-9.32 13.083l-0.188 0.368c-0.996 2.508-2.352 4.663-4.030 6.522l0.017-0.019c-0.066 0.074-0.12 0.154-0.188 0.227-2.544 2.755-5.783 4.831-9.441 5.95l-0.151 0.040c-0.233 0.072-0.456 0.147-0.691 0.213-1.678 0.518-3.607 0.816-5.606 0.816-2.056 0-4.038-0.316-5.901-0.901l0.139 0.038-0.318-0.098c-7.72-2.264-13.546-8.564-15.090-16.401l-0.022-0.136c-2.673-4.258-5.445-7.95-8.489-11.395l0.080 0.092c-4.019-4.785-8.784-8.785-14.144-11.865l-0.255-0.135c-5.063-3.261-10.901-5.984-17.104-7.87l-0.497-0.13c-5.911-1.777-12.704-2.8-19.736-2.8-9.611 0-18.775 1.911-27.134 5.373l0.471-0.173c-8.426 3.453-15.611 8.329-21.593 14.394l-0.007 0.007c-6.067 5.729-10.939 12.653-14.249 20.403l-0.151 0.397c-3.544 7.051-5.619 15.365-5.619 24.164 0 13.003 4.531 24.947 12.101 34.34l-0.082-0.105 137.601 148 136.798-146.399c7.501-9.116 12.24-20.756 12.797-33.481l0.004-0.119c-0.357-9.036-2.383-17.509-5.775-25.246l0.175 0.447zM831.591 960h-512c-35.303-0.107-63.893-28.697-64-63.99v-64.010h-63.199c-35.303-0.107-63.893-28.697-64-63.99v-768.010c0.106-35.303 28.696-63.894 63.99-64h512.010c35.303 0.107 63.893 28.697 64 63.99v64.010h64c0.061 0 0.134 0 0.206 0 34.794 0 63.001 28.206 63.001 63.001 0 0.351-0.003 0.702-0.009 1.052l0.001-0.053v768c-0.107 35.303-28.697 63.893-63.99 64h-0.010zM704.392-21.6h-512c-0.027 0-0.058 0-0.090 0-11.88 0-21.51 9.63-21.51 21.51 0 0.032 0 0.063 0 0.095v-0.005 768c0 0.027 0 0.058 0 0.090 0 11.88 9.63 21.51 21.51 21.51 0.032 0 0.064 0 0.095 0h511.995c0.027 0 0.059 0 0.091 0 11.879 0 21.51-9.63 21.51-21.51 0-0.032 0-0.064 0-0.096v0.005-676.846c-0.508-1.663-0.801-3.575-0.801-5.555s0.293-3.892 0.837-5.694l-0.036 0.139v-80.045c0-0.027 0-0.059 0-0.091 0-11.879-9.63-21.51-21.51-21.51-0.032 0-0.064 0-0.096 0h0.005zM853.992 128.8c0-0.027 0-0.059 0-0.090 0-11.88-9.631-21.51-21.51-21.51-0.032 0-0.063 0-0.095 0h-63.995v660.801c-0.107 35.303-28.697 63.893-63.99 64h-405.61v64.8c0 0.027 0 0.058 0 0.089 0 11.88 9.63 21.51 21.51 21.51 0.032 0 0.063 0 0.095 0h511.995c0.027 0 0.059 0 0.091 0 11.879 0 21.51-9.63 21.51-21.51 0-0.032 0-0.063 0-0.095v0.005z" />
<glyph unicode="&#x6c;" glyph-name="mobile" data-tags="mobile" d="M739.986 960h-455.972c-35.491-0.039-64.252-28.795-64.3-64.28v-895.421c0.041-35.495 28.805-64.259 64.296-64.3h455.976c35.495 0.041 64.259 28.805 64.3 64.296v895.42c-0.048 35.49-28.809 64.245-64.296 64.284h-0.004zM284.014 920.639h455.972c13.763-0.013 24.917-11.162 24.939-24.921v-718.263h-505.85v718.261c0.022 13.762 11.176 24.911 24.938 24.924h0.001zM739.986-24.639h-455.972c-13.765 0.020-24.919 11.174-24.939 24.937v137.796h505.85v-137.794c-0.020-13.765-11.174-24.919-24.937-24.939h-0.002zM549.055 77.146h-74.109c-10.869 0-19.68-8.811-19.68-19.68s8.811-19.68 19.68-19.68h74.109c10.869 0 19.68 8.811 19.68 19.68s-8.811 19.68-19.68 19.68v0z" />
<glyph unicode="&#x6e;" glyph-name="new-window" data-tags="new-window" d="M937.668 448.4v-426.067h-852.134v852.134h426.067v85.533h-426.067c-47.216-0.055-85.478-38.317-85.533-85.528v-852.939c0.346-47.099 38.434-85.187 85.5-85.533h852.967c47.099 0.346 85.187 38.434 85.533 85.5v426.9zM1023.201 618.667v298.966c-0.158 23.335-19.032 42.209-42.352 42.367h-298.981v-85.533h195.847l-366.114-366.114 59.954-59.953 366.114 366.114v-195.048l85.533-0.799z" />
<glyph unicode="&#x6f;" glyph-name="minimise" data-tags="minimise" d="M410 372.1h-286.4c-14.58 0-26.4-11.82-26.4-26.4s11.82-26.4 26.4-26.4h221.6l-337.6-337.6c-4.819-4.808-7.8-11.456-7.8-18.8s2.981-13.992 7.799-18.8v0c4.465-4.924 10.887-8.003 18.027-8.003 0.131 0 0.262 0.001 0.393 0.003h-0.020c0.129-0.002 0.282-0.004 0.435-0.004 7.371 0 14.025 3.067 18.756 7.995l0.008 0.009 337.6 337.601v-222.4c0.131-14.527 11.873-26.269 26.387-26.4h0.013c14.601 0.354 26.4 11.875 27.197 26.328l0.003 0.072v286.4c-0.28 7.204-3.282 13.656-8.001 18.401l0.001-0.001c-4.272 4.923-10.538 8.018-17.527 8.018-0.307 0-0.613-0.006-0.918-0.018l0.044 0.001zM1016.4-19.1l-338.4 338.4h222.4c14.58 0 26.4 11.82 26.4 26.4s-11.82 26.4-26.4 26.4h-286.4c-7.204-0.279-13.657-3.282-18.401-8.001l0.001 0.001c-4.922-4.272-8.016-10.538-8.016-17.527 0-0.307 0.006-0.612 0.018-0.916l-0.001 0.044v-286.4c0.131-14.527 11.873-26.269 26.387-26.4h0.013c14.839 0.446 26.754 12.361 27.199 27.158l0.001 0.042v220.892l337.6-336.892c4.465-4.924 10.886-8.003 18.027-8.003 0.131 0 0.262 0.001 0.393 0.003h-0.020c7.353 0.095 14.057 2.803 19.242 7.235l-0.042-0.035c4.819 4.808 7.8 11.456 7.8 18.8s-2.981 13.992-7.8 18.799l-0.001 0.001zM345.909 576.9h-223.109c-14.58 0-26.4-11.82-26.4-26.4s11.82-26.4 26.4-26.4v0h286.4c0.059-0.001 0.129-0.001 0.199-0.001 6.947 0 13.172 3.090 17.376 7.971l0.025 0.030c4.922 4.272 8.016 10.538 8.016 17.526 0 0.307-0.006 0.613-0.018 0.917l0.001-0.044v286.4c0 14.58-11.82 26.4-26.4 26.4s-26.4-11.82-26.4-26.4v0-221.6l-336.8 336.801c-4.807 4.787-11.437 7.746-18.758 7.746-14.684 0-26.587-11.904-26.587-26.587 0-7.321 2.959-13.951 7.747-18.759l-0.001 0.001zM614 524.1l285.6 0.8c14.581 0 26.4 11.82 26.4 26.4s-11.82 26.4-26.4 26.4h-220.8l336.8 336.799c4.811 4.811 7.787 11.458 7.787 18.8 0 14.684-11.904 26.587-26.587 26.587-7.342 0-13.989-2.976-18.8-7.787l-337.6-337.601v222.4c0 14.58-11.82 26.4-26.4 26.4s-26.4-11.82-26.4-26.4v-286.4c0.279-7.204 3.282-13.656 8.001-18.401l-0.001 0.001c4.272-4.922 10.538-8.016 17.526-8.016 0.307 0 0.613 0.006 0.918 0.018l-0.044-0.001z" />
<glyph unicode="&#x70;" glyph-name="lock" data-tags="lock" d="M835.2 566.4h-51.2v128c-3.2 144-128 265.6-272 265.6s-268.8-121.6-268.8-265.6v-128h-54.4c-19.2 0-38.4-16-38.4-32v-566.4c0-19.2 19.2-32 38.4-32h646.4c19.2 0 38.4 12.8 38.4 32v566.4c0 19.2-22.4 32-38.4 32zM688 566.4h-352v128c0 96 80 185.6 176 185.6s176-89.6 176-185.6z" />
<glyph unicode="&#x73;" glyph-name="plus" data-tags="plus" d="M1024 384v128h-448v448h-128v-448h-448v-128h448v-448h128v448z" />
<glyph unicode="&#x74;" glyph-name="location" data-tags="location" d="M587.948 951.135c-34.4 8.8-85.6 12.8-120 4-196-34.4-328-234.4-252-417.6 90.4-204.8 196.8-400.8 295.2-601.6 98.4 200.8 208.8 396.8 294.4 601.6 76 170.4-34.4 362.4-217.6 413.6zM515.148 455.935c-96.419 0.845-174.355 78.782-175.199 175.12l-0.001 0.080c-0.004 0.425-0.006 0.926-0.006 1.429 0 95.073 76.342 172.316 171.069 173.77l0.137 0.002h4c0.27 0.002 0.59 0.002 0.91 0.002 95.178 0 172.539-76.279 174.287-171.039l0.002-0.164v-4c-1.136-96.3-78.9-174.064-175.092-175.199l-0.108-0.001z" />
<glyph unicode="&#x79;" glyph-name="horses" data-tags="horses" d="M23.116-4.443h-3.186c-11.040 2.411-19.184 12.103-19.184 23.698 0 0.631 0.024 1.256 0.071 1.874l-0.005-0.082c0 6.372 22.304 133.821 114.704 168.87 12.745 3.186 25.49 0 28.676-12.745s0-25.49-12.745-28.676v0c-66.911-25.49-86.028-133.821-86.028-133.821 0-12.745-9.559-19.117-22.304-19.117zM23.116 196.289h-6.372c-9.523 2.094-16.543 10.459-16.543 20.465 0 1.784 0.223 3.516 0.643 5.17l-0.031-0.145c0 6.372 35.048 146.566 146.566 146.566 12.3-0.024 22.261-10 22.261-22.304s-9.962-22.28-22.259-22.304h-0.002c-76.469 0-101.959-111.518-101.959-111.518 0-9.559-9.559-15.931-22.304-15.931zM70.909 403.393c-0.158-0.004-0.344-0.006-0.531-0.006-12.028 0-21.779 9.751-21.779 21.779 0 0.187 0.002 0.373 0.007 0.559l-0.001-0.027v6.372c3.186 6.372 47.793 124.263 178.428 124.263 12.318 0 22.304-9.986 22.304-22.304s-9.986-22.304-22.304-22.304v0c-98.773 0-137.007-92.4-137.007-95.587-3.367-7.417-10.62-12.528-19.090-12.744l-0.027-0.001zM223.847 620.056c-0.158-0.004-0.344-0.006-0.531-0.006-12.028 0-21.779 9.751-21.779 21.779 0 0.187 0.002 0.373 0.007 0.558l-0.001-0.027c0.129 6.16 2.527 11.737 6.389 15.949l-0.016-0.018c3.186 3.186 54.166 57.352 181.615 57.352 12.3-0.024 22.261-10 22.261-22.304s-9.962-22.28-22.259-22.304h-0.002c-105.145 0-149.752-41.421-149.752-44.607-4.194-3.846-9.771-6.244-15.906-6.372h-0.026zM940.747 266.385c-27.068 1.442-51.41 12.063-70.214 28.778l0.117-0.102c-60.538 50.98-111.518 63.724-187.987 63.724-114.704 3.186-162.497 82.842-162.497 86.028-1.776 3.229-2.821 7.077-2.821 11.17 0 12.991 10.531 23.522 23.522 23.522 8.913 0 16.668-4.957 20.659-12.265l0.061-0.123c0-3.186 38.235-60.538 127.449-63.724 82.842-3.186 146.566-15.931 216.663-73.283 25.49-22.304 47.793-25.49 63.724-9.559s19.117 50.98-9.559 79.656c-63.724 70.097-152.939 200.732-200.732 270.829l-6.372 9.559c-54.166 79.656-79.656 98.773-111.518 117.89-23.809 16.135-44.617 32.896-63.955 51.196l0.231-0.216c-3.186 3.186-6.372 6.372-9.559 3.186-3.186 0-3.186-3.186-3.186-9.559 0-76.469-60.538-121.076-63.724-121.076-3.581-2.417-7.995-3.859-12.745-3.859-12.689 0-22.976 10.287-22.976 22.976 0 7.939 4.027 14.938 10.15 19.065l0.082 0.052s44.607 35.048 44.607 86.028c-3.186 28.676 19.117 50.98 47.793 54.166 0.423 0.012 0.92 0.020 1.419 0.020 16.121 0 30.507-7.425 39.927-19.041l0.075-0.096c19.117-15.931 35.048-31.862 57.352-47.793 31.862-22.304 60.538-41.421 121.076-130.635l6.372-9.559c47.793-70.097 137.007-197.546 197.546-264.456 44.607-47.793 38.235-108.332 9.559-140.194-16.864-12.415-37.608-20.509-60.13-22.278l-0.409-0.026zM724.084-4.443c-0.432-0.056-0.931-0.089-1.438-0.089-3.155 0-6.019 1.248-8.124 3.278l0.004-0.003c-9.559 3.186-197.546 114.704-197.546 318.622 0 0.013 0 0.027 0 0.042 0 12.318 9.986 22.304 22.304 22.304s22.304-9.986 22.304-22.304c0-0.015 0-0.030 0-0.045v0.002c0-178.428 172.056-277.201 175.242-277.201 7.222-4.414 11.969-12.255 11.969-21.205 0-3.874-0.889-7.54-2.475-10.805l0.065 0.147c-4.127-7.654-12.087-12.768-21.241-12.768-0.374 0-0.745 0.009-1.115 0.025l0.052-0.002zM755.606 584.634c0-17.598-14.266-31.864-31.864-31.864s-31.864 14.266-31.864 31.864c0 17.598 14.266 31.864 31.864 31.864s31.864-14.266 31.864-31.864z" />
<glyph unicode="&#x7a;" glyph-name="how-it-works" data-tags="how-it-works" d="M512 960c-282.77-0.001-512-229.231-512-512s229.23-512 512-512c282.77 0 512 229.23 512 512v0c-0.27 282.662-229.339 511.731-511.974 512h-0.026zM512-20c-258.469 0-468 209.531-468 468s209.531 468 468 468c258.469 0 468-209.531 468-468 0 0 0-0.001 0-0.001v0c-0.343-258.331-209.668-467.657-467.967-467.999h-0.033zM512 838.4c-0.159 0.004-0.345 0.006-0.533 0.006-12.081 0-21.874-9.793-21.874-21.874 0-0.187 0.002-0.374 0.007-0.56l-0.001 0.028c0-0.012 0-0.025 0-0.039 0-12.35 10.011-22.361 22.361-22.361 0.014 0 0.028 0 0.041 0h-0.002c0.183 0 0.399 0.001 0.616 0.001 191.21 0 346.216-155.006 346.216-346.216s-155.006-346.216-346.216-346.216c-191.21 0-346.216 155.006-346.216 346.216 0 110.359 51.635 208.658 132.064 272.056l0.736 0.559c5.307 4.106 8.69 10.476 8.69 17.637 0 12.284-9.958 22.242-22.242 22.242-5.166 0-9.921-1.761-13.697-4.716l0.049 0.037c-90.869-71.891-148.649-182.16-148.649-305.924 0-214.908 174.217-389.125 389.125-389.125s389.125 174.217 389.125 389.125c0 214.908-174.217 389.125-389.125 389.125-0.167 0-0.335 0-0.502 0h0.026zM466.399 249.6c0.114-18.511 15.090-33.486 33.59-33.6h0.011c0.092-0.001 0.201-0.001 0.31-0.001 18.386 0 33.291 14.905 33.291 33.291 0 0.109-0.001 0.218-0.002 0.327v-0.017c0 18.557-15.043 33.6-33.6 33.6s-33.6-15.043-33.6-33.6v0zM512.8 648.8c54.4 0 98.4-37.6 98.4-84.8 0-1.6 0-37.6-52.001-72.8-51.999-40-83.199-100-83.199-159.2h44c0 45.599 24.8 91.999 67.2 123.2 72 49.6 69.599 108 69.599 109.599 0 70.4-63.999 128.001-143.2 128.001s-143.2-57.601-143.2-128.001h44c0.001 46.401 44.001 84.001 98.4 84.001z" />
<glyph unicode="&#x7b;" glyph-name="default-sport" data-tags="default-sport" d="M1016.16 633.064l-165.256 137.659c-52.2 44.694-119.526 73.093-193.367 76.658l-0.739 0.028 26.319 84.314c0.378 1.425 0.612 3.068 0.646 4.76v0.022c0.048 0.59 0.343 1.101 0.343 1.708 0 0.122-0.066 0.218-0.069 0.34-0.041 2.81-0.614 5.475-1.621 7.914l0.052-0.143c-0.392 0.764-0.762 1.392-1.163 1.998l0.049-0.078c-0.883 1.75-1.915 3.259-3.117 4.612l0.019-0.022c-0.708 0.702-1.466 1.356-2.268 1.955l-0.056 0.040c-0.723 0.724-1.499 1.394-2.322 2.003l-0.056 0.039c-0.492 0.298-1.048 0.356-1.556 0.612-0.819 0.409-1.801 0.804-2.816 1.125l-0.149 0.041c-1.469 0.504-3.176 0.863-4.943 1.006l-0.076 0.005c-0.588 0.048-1.093 0.34-1.694 0.34h-300.638c-0.596 0-1.101-0.293-1.686-0.34-1.857-0.146-3.578-0.509-5.21-1.065l0.149 0.044c-1.145-0.354-2.112-0.744-3.040-1.202l0.12 0.053c-0.508-0.255-1.072-0.319-1.566-0.617-0.874-0.651-1.646-1.317-2.368-2.034l0.001 0.001c-0.863-0.647-1.627-1.306-2.343-2.013l0.002 0.002c-1.165-1.321-2.185-2.815-3.008-4.426l-0.056-0.122c-0.364-0.544-0.744-1.188-1.089-1.852l-0.055-0.116c-0.952-2.293-1.525-4.954-1.569-7.743v-0.017c0-0.122-0.069-0.223-0.069-0.34 0-0.601 0.298-1.106 0.346-1.697 0.033-1.717 0.265-3.364 0.676-4.939l-0.032 0.147 26.322-84.319c-74.581-3.591-141.908-31.988-194.548-77.047l0.439 0.367-165.256-137.659c-4.806-4.028-7.841-10.033-7.841-16.747 0-4.236 1.208-8.191 3.299-11.537l-0.053 0.092 107.787-174.702c3.902-6.251 10.743-10.348 18.542-10.348 5.322 0 10.198 1.908 13.982 5.078l-0.034-0.028 108.457 90.34v-557.426c0-0.002 0-0.004 0-0.006 0-12.030 9.752-21.782 21.782-21.782 0.002 0 0.004 0 0.006 0h476.468c0.002 0 0.004 0 0.006 0 12.030 0 21.782 9.752 21.782 21.782 0 0.002 0 0.004 0 0.006v0 557.426l108.457-90.341c3.75-3.142 8.626-5.050 13.948-5.050 7.798 0 14.639 4.097 18.488 10.257l0.053 0.092 107.787 174.702c2.037 3.255 3.245 7.209 3.245 11.445 0 6.714-3.034 12.719-7.807 16.719l-0.034 0.028zM512 817.452l-98.064 98.973h196.122zM614.883 859.383l-32.16-103.021-38.458 31.745zM479.734 788.106l-38.458-31.745-32.17 103.021zM889.074 474.426l-124.894 104.043c-3.749 3.136-8.622 5.040-13.939 5.040-12.033 0-21.789-9.752-21.795-21.784v-582.15h-432.894v582.149c-0.006 12.033-9.762 21.785-21.795 21.785-5.317 0-10.19-1.904-13.973-5.068l0.034 0.028-124.894-104.043-84.67 137.255 150.734 125.553c47.945 41.352 110.711 66.7 179.385 67.191l0.104 0.001 0.136 0.027 28.726-92.027c2.212-6.938 7.611-12.277 14.431-14.364l0.154-0.041c1.86-0.565 3.998-0.891 6.212-0.894h0.001c5.286 0.002 10.132 1.882 13.908 5.008l-0.036-0.029 67.989 56.122 67.989-56.122c3.74-3.097 8.586-4.977 13.872-4.979v0c2.215 0.002 4.353 0.329 6.37 0.934l-0.157-0.041c6.974 2.127 12.373 7.466 14.542 14.25l0.043 0.154 28.729 92.032c0.053 0 0.096-0.032 0.144-0.032 68.776-0.491 131.537-25.84 179.839-67.495l-0.36 0.304 150.734-125.553z" />
<glyph unicode="&#x7c;" glyph-name="table-tennis" data-tags="table-tennis" d="M977.991 800.034c-91.379 159.508-308.462 207.89-484.027 107.914-87.358-49.565-152.343-130.004-180.688-226.148l-0.686-2.714c-7.579-25.832-11.939-55.509-11.939-86.203 0-49.48 11.33-96.314 31.537-138.048l-0.826 1.891-325.957-185.673 21.578-37.879 325.764 185.567c61.44-91.533 166.836-141.484 278.71-141.484 71.363 0.257 138.167 19.548 195.667 53.056l-1.865-1.004c87.36 49.578 152.348 130.021 180.709 226.168l0.687 2.715c7.69 25.955 12.116 55.775 12.116 86.629 0 57.050-15.129 110.567-41.595 156.756l0.814-1.543zM379.091 458.885c-22.022 38.45-35.008 84.517-35.008 133.618 0 26.756 3.856 52.611 11.043 77.040l-0.486-1.927c10.49 36.87 26.129 69.076 46.388 97.789l-0.673-1.005 253.623-442.806c-112.329-7.64-220.061 41.561-274.886 137.292zM964.605 569.661c-25.838-87.505-83.483-158.671-159.235-201.594l-1.688-0.88v-0.011c-29.78-17.255-64.332-30.707-100.98-38.48l-2.311-0.41-270.817 472.823c24.566 26.909 52.893 49.819 84.275 68.051l1.695 0.909c49.489 28.946 108.916 46.139 172.339 46.402h0.076c103.977 0 201.080-48.86 252.196-138.1 22.022-38.445 35.008-84.508 35.008-133.604 0-26.753-3.856-52.606-11.043-77.033l0.486 1.927zM323.038 224.182c-46.732-27.143-77.653-76.96-77.653-134 0-85.296 69.146-154.443 154.443-154.443s154.443 69.146 154.443 154.443c0 28.17-7.542 54.578-20.716 77.316l0.396-0.742c-27.291 46.742-77.21 77.649-134.347 77.649-28.155 0-54.557-7.504-77.315-20.622l0.75 0.399zM506.817 61.162c-7.991-28.91-26.709-52.51-51.495-66.729l-0.536-0.283c-15.819-9.166-34.804-14.575-55.053-14.575-41.028 0-76.869 22.207-96.159 55.256l-0.285 0.528c-9.12 15.742-14.503 34.635-14.503 54.784 0 61.152 49.574 110.726 110.726 110.726 0.003 0 0.005 0 0.008 0v0c0.067 0 0.146 0 0.225 0 41.004 0 76.821-22.206 96.082-55.248l0.285-0.529c9.216-15.709 14.659-34.596 14.659-54.755 0-10.383-1.444-20.429-4.142-29.948l0.187 0.772z" />
<glyph unicode="&#x7d;" glyph-name="lightning" data-tags="lightning" d="M705.979 960c-0.242 0.007-0.527 0.011-0.813 0.011-8.573 0-16.281-3.707-21.608-9.605l-0.023-0.025-506.589-525.827c-5.955-6.244-9.619-14.717-9.619-24.047s3.664-17.803 9.632-24.061l-0.013 0.014c5.349-5.924 13.057-9.63 21.63-9.63 0.286 0 0.571 0.004 0.855 0.012l-0.042-0.001h201.995l-118.632-387.958c-1.050-3.059-1.657-6.584-1.657-10.251 0-14.971 10.108-27.58 23.872-31.377l0.229-0.054h3.206c2.825-0.792 6.068-1.247 9.418-1.247 10.124 0 19.277 4.158 25.845 10.86l0.006 0.006 503.383 525.827c5.955 6.244 9.619 14.717 9.619 24.047s-3.664 17.803-9.632 24.061l0.013-0.014c-5.35 5.924-13.057 9.63-21.63 9.63-0.286 0-0.571-0.004-0.855-0.012l0.042 0.001h-201.995l121.838 387.958c1.050 3.059 1.657 6.584 1.657 10.251 0 14.971-10.108 27.58-23.872 31.377l-0.229 0.054h-16.031z" />
<glyph unicode="&#x7e;" glyph-name="conditions" data-tags="conditions" d="M707.376 474.662h-390.753c-11.729 0-21.237-9.508-21.237-21.237s9.508-21.237 21.237-21.237h390.753c11.729 0 21.237 9.508 21.237 21.237s-9.508 21.237-21.237 21.237v0zM707.376 330.635h-390.753c-11.729 0-21.237-9.508-21.237-21.237s9.508-21.237 21.237-21.237h390.753c11.729 0 21.237 9.508 21.237 21.237s-9.508 21.237-21.237 21.237v0zM707.376 186.575h-390.753c-11.711-0.023-21.196-9.523-21.196-21.237s9.485-21.213 21.193-21.237h390.755c11.711 0.023 21.196 9.523 21.196 21.237s-9.485 21.213-21.193 21.237h-0.002zM812.116 960h-486.45l-202.975-176.181v-758.626c0.062-49.235 39.958-89.132 89.187-89.193h600.237c49.235 0.062 89.132 39.958 89.193 89.188v845.619c-0.062 49.235-39.958 89.132-89.187 89.193h-0.006zM858.836 25.193c-0.027-25.792-20.928-46.693-46.717-46.72h-600.234c-25.792 0.027-46.693 20.928-46.72 46.717v739.251l176.363 153.085h32.22v-179.797h-106.415v-42.473h148.888v222.27h395.896c25.792-0.027 46.693-20.928 46.72-46.717v-0.003z" />
<glyph unicode="&#x7f;" glyph-name="rankings" data-tags="rankings" d="M311.134 10.344l-29.773 121.498c-2.123 8.419-9.628 14.552-18.566 14.552-2.814 0-5.487-0.608-7.893-1.7l0.12 0.049-113.196-50.408 109.479 224.658-34.373 16.754-132.457-271.844c-1.218-2.445-1.931-5.325-1.931-8.372 0-10.557 8.558-19.114 19.114-19.114 2.818 0 5.494 0.61 7.903 1.705l-0.12-0.049 140.236 62.457 36.761-149.973c1.948-7.731 8.416-13.518 16.367-14.429l0.088-0.008c0.629-0.073 1.36-0.116 2.101-0.119h0.004c7.453 0.002 13.909 4.269 17.061 10.492l0.050 0.109 123.364 247.848-34.224 17.022zM939.526 63.903l-132.473 271.844-34.372-16.754 109.493-224.658-113.227 50.408c-2.286 1.043-4.959 1.651-7.773 1.651-8.938 0-16.443-6.133-18.537-14.42l-0.028-0.132-29.773-121.498-100.116 201.127-34.223-17.022 123.379-247.848c3.202-6.333 9.658-10.599 17.111-10.602v0c0.751 0.003 1.488 0.047 2.214 0.128l-0.093-0.008c8.033 0.925 14.494 6.711 16.411 14.306l0.028 0.132 36.746 149.973 140.267-62.457c2.289-1.046 4.964-1.656 7.782-1.656 10.557 0 19.114 8.558 19.114 19.114 0 3.047-0.713 5.927-1.981 8.483l0.050-0.111zM603.493 254.952c0.011 0 0.023 0 0.036 0 21.255 0 40.244 9.697 52.787 24.909l0.094 0.117 37.986 49.647c10.766 12.76 23.776 23.239 38.48 30.919l0.7 0.333 56.845 26.070c22.456 11.319 37.589 34.194 37.589 60.604 0 0.321-0.002 0.642-0.007 0.962l0.001-0.048-2.808 62.459c0.025 17.752 3.68 34.644 10.26 49.983l-0.316-0.829 26.817 56.486c3.571 7.975 5.65 17.285 5.65 27.080 0 16.933-6.215 32.415-16.488 44.288l0.072-0.086-42.346 46.078c-10.432 12.388-18.621 27.055-23.705 43.105l-0.246 0.898-15.783 60.503c-7.473 24.804-28.145 43.347-53.654 47.621l-0.396 0.055-61.982 8.094c-17.634 3.197-33.331 9.593-47.167 18.605l0.491-0.3-51.006 36.209c-10.529 7.071-23.491 11.285-37.437 11.285-12.771 0-24.717-3.534-34.912-9.678l0.305 0.17-52.739-33.7c-13.682-8.027-29.741-13.673-46.872-15.909l-0.641-0.068-62.339-5.047c-26.225-3.044-47.672-20.681-56.188-44.471l-0.148-0.473-18.754-59.666c-6.129-16.563-14.983-30.782-26.146-42.831l0.076 0.083-44.541-43.944c-11.548-12.13-18.652-28.583-18.652-46.694 0-8.61 1.606-16.846 4.534-24.423l-0.157 0.463 23.996-57.756c4.831-12.926 7.627-27.863 7.627-43.453 0-2.147-0.053-4.282-0.158-6.403l0.012 0.299-5.839-62.266c-0.082-1.25-0.129-2.711-0.129-4.182 0-25.247 13.81-47.268 34.287-58.921l0.334-0.175 55.515-28.848c14.857-8.686 27.34-19.75 37.344-32.813l0.224-0.304 35.552-51.484c12.468-16.759 32.216-27.497 54.471-27.497 4.467 0 8.834 0.433 13.059 1.258l-0.428-0.070 60.949 13.617c6.609 1.216 14.215 1.912 21.983 1.912 9.983 0 19.697-1.148 29.018-3.321l-0.861 0.169 60.338-16.604c4.536-1.28 9.746-2.016 15.128-2.016 0.099 0 0.199 0 0.298 0.001h-0.015zM499.032 314.932c-0.458 0.005-0.998 0.008-1.539 0.008-9.977 0-19.714-1.026-29.113-2.977l0.924 0.16-60.936-13.617c-1.228-0.177-2.645-0.278-4.086-0.278-9.352 0-17.709 4.255-23.242 10.935l-0.040 0.050-35.552 51.484c-13.828 18.473-30.954 33.66-50.617 44.92l-0.807 0.426-55.485 28.834c-8.508 5.443-14.066 14.842-14.066 25.54 0 0.086 0 0.173 0.001 0.259v-0.013l5.838 62.25c0.182 2.909 0.286 6.308 0.286 9.731 0 20.862-3.857 40.823-10.896 59.208l0.382-1.135-23.994 57.754c-0.904 2.739-1.426 5.892-1.426 9.167 0 7.511 2.743 14.381 7.282 19.662l-0.034-0.040 44.54 43.941c15.392 16.269 27.552 35.773 35.339 57.367l0.363 1.151 18.74 59.651c3.995 9.551 12.496 16.509 22.771 18.266l0.178 0.025 62.324 5.047c24.319 2.904 46.333 10.659 65.768 22.279l-0.756-0.419 52.752 33.699c4.064 2.178 8.89 3.457 14.016 3.457 5.653 0 10.942-1.556 15.463-4.264l-0.137 0.076 51.006-36.209c18.199-12.138 39.711-20.915 62.865-24.886l0.982-0.139 61.981-8.094c10.3-2.287 18.487-9.614 21.943-19.2l0.066-0.21 15.798-60.488c7.037-23.262 18.29-43.388 32.986-60.464l-0.182 0.216 42.331-46.078c3.93-5.045 6.301-11.473 6.301-18.455 0-3.798-0.702-7.432-1.982-10.779l0.070 0.207-26.816-56.455c-8.61-19.404-13.623-42.039-13.623-65.845 0-0.495 0.002-0.989 0.006-1.483l-0.001 0.076 2.807-62.518c-0.425-10.726-6.413-19.964-15.142-24.95l-0.147-0.078-56.845-26.070c-21.191-10.763-39.037-25.135-53.413-42.487l-0.222-0.275-37.971-49.648c-5.578-6.090-13.565-9.894-22.44-9.894-1.917 0-3.792 0.177-5.61 0.517l0.188-0.029-60.278 16.603c-11.139 2.872-23.927 4.52-37.1 4.52-0.632 0-1.263-0.004-1.893-0.011l0.096 0.001zM733.695 603.856c0 122.443-99.26 221.702-221.703 221.702s-221.703-99.26-221.703-221.703c0-122.443 99.259-221.702 221.702-221.703v0c122.385 0.145 221.559 99.318 221.703 221.689v0.014zM511.992 420.378c-101.332 0-183.478 82.146-183.478 183.479s82.146 183.479 183.479 183.479c101.332 0 183.479-82.146 183.479-183.479 0 0 0 0 0 0v0c-0.114-101.287-82.192-183.365-183.468-183.478h-0.011z" />
<glyph unicode="&#xa1;" glyph-name="min-bet" data-tags="min-bet" d="M618.4 813.601h-436c-0.044 0-0.096 0-0.147 0-49.403 0-89.453-40.049-89.453-89.453 0-0.052 0-0.104 0-0.155v0.008h40c0 0.062 0 0.136 0 0.21 0 27.719 22.471 50.19 50.19 50.19 0.074 0 0.148 0 0.222 0h435.989c0.063 0 0.137 0 0.211 0 27.719 0 50.19-22.471 50.19-50.19 0-0.074 0-0.148 0-0.221v0.011h40c-0.403 49.573-40.684 89.604-90.314 89.604-0.312 0-0.623-0.002-0.934-0.005h0.047zM1024 622.4c0 0.027 0 0.060 0 0.093 0 42.857-34.743 77.6-77.6 77.6s-77.6-34.743-77.6-77.6c0-35.745 24.168-65.845 57.055-74.851l0.544-0.127v-296.314h-40.8v48.801c0.001 0.058 0.001 0.126 0.001 0.195 0 10.939-8.867 19.806-19.806 19.806-0.069 0-0.137 0-0.205-0.001h-63.19v404c-0.276 101.067-82.133 182.923-183.174 183.199h-436.026c-101.067-0.276-182.924-82.132-183.2-183.173v-734.426h40v734.4c0 0.043 0 0.093 0 0.144 0 79.008 64.048 143.056 143.056 143.056 0.051 0 0.101 0 0.152 0h436.792c0.043 0 0.093 0 0.144 0 79.008 0 143.056-64.048 143.056-143.056 0-0.050 0-0.101 0-0.151v0.008-735.201h39.2v155.201h63.2c0.058-0.001 0.127-0.001 0.196-0.001 10.938 0 19.805 8.867 19.805 19.805 0 0.069 0 0.138-0.001 0.206v-0.010 47.199h60.8c0.058-0.001 0.126-0.001 0.195-0.001 10.939 0 19.806 8.868 19.806 19.806 0 0.069 0 0.137-0.001 0.205v-0.010 316.246c33.401 8.919 57.601 38.905 57.601 74.542 0 0.145 0 0.289-0.001 0.434v-0.022zM845.6 184.001h-43.2v96h43.2zM946.4 584.8c0 0 0 0-0.001 0-20.766 0-37.601 16.834-37.601 37.601s16.834 37.601 37.601 37.601c20.766 0 37.601-16.834 37.601-37.601 0 0 0 0 0-0.001v0c0-0.013 0-0.028 0-0.043 0-20.742-16.815-37.557-37.557-37.557-0.015 0-0.030 0-0.046 0h0.002zM185.6 543.2h44l-40.8-96c-1.199-2.447-1.901-5.325-1.901-8.368 0-8.153 5.038-15.13 12.17-17.986l0.13-0.046c2.359-0.866 5.087-1.44 7.926-1.597l0.074-0.003c0.072-0.001 0.157-0.001 0.243-0.001 8.758 0 16.202 5.626 18.915 13.461l0.042 0.141 52 123.201c1.045 2.281 1.654 4.949 1.654 7.759 0 3.97-1.216 7.656-3.297 10.706l0.042-0.066c-3.786 5.293-9.884 8.723-16.788 8.8h-74.412c-11.046 0-20-8.954-20-20s8.954-20 20-20v0zM364.8 543.2h44l-40.8-96c-1.199-2.447-1.901-5.325-1.901-8.367 0-8.153 5.038-15.13 12.17-17.986l0.13-0.046c2.359-0.866 5.087-1.44 7.927-1.597l0.073-0.003c0.072-0.001 0.157-0.001 0.242-0.001 8.758 0 16.202 5.626 18.915 13.461l0.042 0.141 52 123.201c1.045 2.281 1.654 4.949 1.654 7.759 0 3.97-1.216 7.656-3.297 10.706l0.042-0.066c-3.786 5.293-9.884 8.723-16.788 8.8h-74.412c-11.046 0-20-8.954-20-20s8.954-20 20-20v0zM544 543.2h44l-40.8-96c-1.2-2.447-1.901-5.326-1.901-8.368 0-8.153 5.038-15.129 12.17-17.986l0.13-0.046c2.338-0.787 5.057-1.354 7.871-1.591l0.129-0.009c0.218-0.009 0.474-0.014 0.731-0.014 7.978 0 14.808 4.917 17.623 11.887l0.046 0.128 52.8 124.801c1.045 2.281 1.655 4.949 1.655 7.759 0 3.97-1.216 7.656-3.297 10.706l0.042-0.066c-3.786 5.293-9.884 8.723-16.788 8.8h-74.412c-11.046 0-20-8.954-20-20s8.954-20 20-20v0zM689.6 659.2h-576c-0.058 0.001-0.127 0.001-0.196 0.001-10.938 0-19.805-8.867-19.805-19.805 0-0.069 0-0.137 0.001-0.206v0.010-274.4c-0.001-0.058-0.001-0.126-0.001-0.195 0-10.939 8.867-19.806 19.806-19.806 0.069 0 0.137 0 0.205 0.001h575.99c0.058-0.001 0.126-0.001 0.195-0.001 10.939 0 19.806 8.868 19.806 19.806 0 0.068 0 0.137-0.001 0.205v-0.010 274.4c0.001 0.058 0.001 0.127 0.001 0.195 0 10.938-8.867 19.806-19.806 19.806-0.069 0-0.137 0-0.206-0.001h0.010zM669.6 384.8h-152v84c0 11.046-8.954 20-20 20s-20-8.954-20-20v0-84h-152v84c0 11.046-8.954 20-20 20s-20-8.954-20-20v0-84h-152.8v234.4h536.8zM93.6 33.601h615.2v151.199h-615.2zM133.6 144.8h535.2v-71.199h-535.2z" />
<glyph unicode="&#xb1;" glyph-name="envelope" data-tags="envelope" d="M1023.983 750.075c-0.045 41.882-33.985 75.822-75.863 75.867h-872.252c-41.882-0.045-75.822-33.985-75.867-75.863v-604.154c0.045-41.882 33.985-75.822 75.863-75.867h872.27c41.882 0.045 75.822 33.985 75.867 75.863v0.004zM979.355 750.075l0.017-604.15c0-0.78-0.174-1.512-0.231-2.279l-212.518 254.374c-4.121 4.905-10.258 8.001-17.119 8.001-12.324 0-22.314-9.99-22.314-22.314 0-5.463 1.963-10.468 5.223-14.347l-0.028 0.034 212.801-254.71h-866.353l212.801 254.71c3.231 3.845 5.195 8.849 5.195 14.312 0 12.324-9.99 22.314-22.314 22.314-6.86 0-12.998-3.096-17.091-7.967l-0.028-0.034-212.535-254.392c-0.058 0.771-0.232 1.51-0.232 2.297v604.15c0.057 1.267 0.182 2.45 0.371 3.61l-0.024-0.176 454.856-351.131c3.728-2.903 8.477-4.655 13.635-4.655 5.218 0 10.017 1.792 13.816 4.795l-0.047-0.036 451.372 354.234c0.464-1.992 0.736-4.283 0.746-6.635v-0.007zM81.972 781.314h855.699l-424.311-333z" />
<glyph unicode="&#xbb;" glyph-name="gift" data-tags="gift" d="M1004.735 960h-984.721c-0.060 0.001-0.131 0.001-0.202 0.001-10.942 0-19.813-8.871-19.813-19.813 0-0.066 0-0.132 0.001-0.198v0.010-984c-0.001-0.056-0.001-0.122-0.001-0.188 0-10.942 8.871-19.813 19.813-19.813 0.071 0 0.142 0 0.213 0.001h983.909c0.060-0.001 0.131-0.001 0.202-0.001 10.942 0 19.813 8.871 19.813 19.813 0 0.066 0 0.132-0.001 0.198v-0.010 984c0.029 0.393 0.046 0.852 0.046 1.315 0 10.324-8.369 18.694-18.694 18.694-0.199 0-0.398-0.003-0.596-0.009l0.029 0.001zM984.721 468h-240.176c24.884 22.335 40.549 54.511 40.83 90.35v0.050c-0.396 37.486-17.337 70.937-43.854 93.452l-0.178 0.148c-27.529 23.501-63.532 37.8-102.875 37.8s-75.346-14.299-103.096-37.984l0.221 0.184-2.402-2.4v270.4h451.531zM281.806 499.2c-21.558 17.454-35.226 43.918-35.226 73.573 0 0.009 0 0.019 0 0.028v-0.002c0.762 29.501 14.218 55.715 35.085 73.483l0.141 0.117c22.626 19.884 52.488 32.017 85.183 32.017 0.732 0 1.462-0.006 2.19-0.018l-0.11 0.001c33.482-0.084 64.202-11.838 88.326-31.406l-0.262 0.206c21.616-18.4 31.223-65.6 35.226-112.8-1.321-13.625-2.075-29.455-2.075-45.461 0-7.646 0.172-15.252 0.512-22.814l-0.038 1.074h-83.261c-62.446 4-106.478 15.2-125.692 32zM533.19 468v64.8c4.003 37.6 12.009 73.6 28.821 88 20.568 16.813 47.122 27 76.056 27s55.488-10.188 76.272-27.171l-0.216 0.171c18.606-14.854 30.423-37.533 30.423-62.972 0-0.080 0-0.16 0-0.24v0.012c-0.311-25.442-12.034-48.084-30.279-63.085l-0.144-0.115c-15.211-13.6-48.836-22.4-96.871-26.4zM492.36 920v-253.6c-3.124 4.187-6.544 7.858-10.321 11.126l-0.087 0.074c-30.283 25.863-69.893 41.601-113.178 41.601-0.178 0-0.355 0-0.533-0.001h0.028c-0.765 0.012-1.667 0.020-2.571 0.020-42.624 0-81.565-15.768-111.309-41.788l0.197 0.169c-29.906-24.544-48.836-61.511-48.836-102.898 0-0.106 0-0.212 0-0.318v0.016c0.278-41.667 19.107-78.88 48.633-103.833l0.203-0.167c0.801-0.8 1.601-0.8 2.402-1.6h-216.958v451.2zM40.029 427.2h355.46c-25.444-16.62-46.182-38.366-61.157-63.9l-0.488-0.9c-67.249-116-2.402-281.6 0.801-288.8 2.883-7.521 10.032-12.77 18.41-12.8h0.004c0.435 0.021 0.945 0.032 1.457 0.032 2.606 0 5.141-0.303 7.572-0.877l-0.223 0.044c7.492 3.114 12.664 10.374 12.664 18.841 0 2.723-0.535 5.321-1.505 7.695l0.049-0.136c-0.801 1.6-60.845 154.4-3.202 254.4 23.217 41.6 64.847 68.8 122.49 80.8v-445.6h-452.331zM533.19-24v438.4c52.839-28 163.32-102.4 161.718-221.6-0.001-0.056-0.001-0.122-0.001-0.188 0-10.942 8.871-19.813 19.813-19.813 0.071 0 0.142 0 0.214 0.001h-0.011c0.060-0.001 0.131-0.001 0.203-0.001 10.942 0 19.813 8.871 19.813 19.813 0 0.066 0 0.132-0.001 0.198v-0.010c0.801 115.2-81.66 192-144.906 233.6 6.405 0 12.809 0.8 19.214 0.8h375.475v-451.2z" />
<glyph unicode="&#xbd;" glyph-name="board-details" data-tags="board-details" d="M798.952 761.704h-573.904c-12.749 0-23.084-10.335-23.084-23.084s10.335-23.084 23.084-23.084v0h573.904c12.749 0 23.084 10.335 23.084 23.084s-10.335 23.084-23.084 23.084v0zM752.792 579.152c12.288 0.576 22.032 10.678 22.032 23.056 0 0.008 0 0.017 0 0.025v-0.001c0.012 0.274 0.019 0.596 0.019 0.92 0 11.838-9.269 21.511-20.946 22.158l-0.057 0.003h-530.888c-11.885-1.216-21.078-11.173-21.078-23.277 0-0.671 0.028-1.336 0.084-1.993l-0.006 0.086c0.789-11.257 9.727-20.195 20.913-20.98l0.071-0.004zM546.096 487.872h-321.048c-12.747 0-23.080-10.333-23.080-23.080s10.333-23.080 23.080-23.080v0h321.048c12.747 0 23.080 10.333 23.080 23.080s-10.333 23.080-23.080 23.080v0zM936.392 845.6c0.007 0.476 0.011 1.038 0.011 1.601 0 61.735-49.594 111.886-111.114 112.788l-0.085 0.001q-0.538 0.008-1.077 0.010h-610.616c-0.059 0-0.13 0-0.2 0-64.719 0-117.198-52.409-117.312-117.101v-0.011q0-0.2 0-0.4v0-788.984c0.925-64.155 52.392-115.989 116.314-117.501l0.142-0.003h606.4c0.059 0 0.13 0 0.2 0 64.719 0 117.198 52.408 117.312 117.101v0.011q0 0.2 0 0.4v0zM890.232 830.912v-777.44c0-0.044 0-0.097 0-0.15 0-39.005-31.364-70.684-70.248-71.194h-613.824c-0.465-0.027-1.010-0.042-1.558-0.042-2.806 0-5.52 0.398-8.087 1.141l0.205-0.051c-31.509 7.572-54.561 35.509-54.561 68.83 0 0.147 0 0.294 0.001 0.44v-0.023 790.064c0 0.047 0 0.102 0 0.158 0 39.005 31.364 70.684 70.248 71.194h606.448c0.044 0 0.097 0 0.15 0 39.005 0 70.684-31.364 71.194-70.248v-12.64z" />
</font>
</defs>
</svg>
